<svg width="100" height="100" viewBox="0 0 100 100" fill="none" xmlns="http://www.w3.org/2000/svg">
<g clip-path="url(#clip0_455_2700)">
<rect width="100" height="100" fill="#111111"/>
<path d="M48.2535 66.6949H30.1989L27.4547 75H12.5777L31.1378 24.0863H47.4591L65.9469 75H50.9977L48.2535 66.6949ZM44.7148 55.8622L39.2262 39.3965L33.8099 55.8622H44.7148Z" fill="#EBECF1"/>
<path d="M77.4211 75.5777C74.9175 75.5777 72.8954 74.9037 71.3548 73.5556C69.8623 72.1594 69.116 70.4021 69.116 68.2837C69.116 66.1653 69.8623 64.408 71.3548 63.0118C72.8954 61.6156 74.9175 60.9175 77.4211 60.9175C79.8765 60.9175 81.8505 61.6156 83.343 63.0118C84.8836 64.408 85.6539 66.1653 85.6539 68.2837C85.6539 70.354 84.8836 72.0872 83.343 73.4834C81.8505 74.8796 79.8765 75.5777 77.4211 75.5777Z" fill="#76FBA6"/>
</g>
<defs>
<clipPath id="clip0_455_2700">
<rect width="100" height="100" fill="white"/>
</clipPath>
</defs>
</svg>
