<svg width="459" height="623" viewBox="0 0 459 623" fill="none" xmlns="http://www.w3.org/2000/svg">
<g clip-path="url(#clip0_488_7100)">
<path d="M300.448 322.528C300.448 322.528 325.893 337.702 332.996 432.03C337.731 493.965 361.231 515.299 362.108 531.889C362.108 531.889 334.185 517.667 326.883 531.889C319.58 546.11 317.458 547.69 296.42 542.95C275.382 538.21 266.369 528.492 241.274 539C216.18 549.507 224.181 515.561 190.497 522.671C156.814 529.781 153.601 531.889 139.394 539C125.188 546.11 125.599 526.358 110.618 526.358C95.6367 526.358 95.9878 540.053 83.8857 537.946C71.7836 535.838 64.5269 507.396 55.0016 501.865C45.4762 496.335 30.8613 500.286 30.8613 500.286C30.8613 500.286 68.4409 459.277 81.6581 432.03C94.8753 404.783 104.601 324.907 125.278 322.528C145.955 320.149 297.624 319.699 300.448 322.528Z" fill="#99EBC2" stroke="#212121" stroke-width="4" stroke-linejoin="round"/>
<path d="M454.805 399.323C426.813 431.043 392.333 437.547 362.108 434.651C383.593 419.758 376.145 383.788 376.145 383.788C397.769 389.972 427.403 387.677 447.126 384.96C448.881 384.72 450.668 385.023 452.246 385.829C453.824 386.635 455.118 387.905 455.954 389.468C456.79 391.032 457.128 392.814 456.922 394.576C456.717 396.338 455.978 397.994 454.805 399.323Z" fill="#99EBC2" stroke="#212121" stroke-width="4" stroke-linejoin="round"/>
<path d="M362.104 434.651C322.048 430.822 289.481 410.477 289.481 410.477L276.366 337.695C317.263 339.525 340.8 366.67 365.267 379.539C368.74 381.32 372.385 382.743 376.145 383.788C376.145 383.788 383.593 419.758 362.104 434.651Z" fill="#00CC66" stroke="#212121" stroke-width="4" stroke-linejoin="round"/>
<path d="M50.1827 286.005C50.1827 286.005 26.5854 295.025 23.9228 334.452C3.89037 302.772 -6.4238 263.628 10.1873 218.615C13.0803 210.787 25.5344 212 27.4566 219.838C31.7115 237.186 38.6601 266.281 50.1827 286.005Z" fill="#99EBC2" stroke="#212121" stroke-width="4" stroke-linejoin="round"/>
<path d="M139.395 358.686L126.232 423.72C126.232 423.72 59.637 390.938 23.9258 334.452C26.5884 295.024 50.1857 286.005 50.1857 286.005C53.8803 292.339 58.0465 297.701 62.7502 301.399C84.8823 318.807 122.065 321.543 139.395 358.686Z" fill="#00CC66" stroke="#212121" stroke-width="4" stroke-linejoin="round"/>
<path d="M316.717 504.348L279.395 612.218C278.387 614.85 276.606 617.114 274.286 618.713C271.967 620.311 269.218 621.167 266.402 621.17H238.798C235.463 621.168 232.239 619.966 229.715 617.784C227.19 615.603 225.532 612.586 225.042 609.284L214.66 539.258C214.596 538.827 214.379 538.434 214.049 538.149C213.719 537.865 213.299 537.709 212.863 537.709C212.428 537.709 212.007 537.865 211.678 538.149C211.348 538.434 211.131 538.827 211.066 539.258L200.682 609.294C200.19 612.594 198.531 615.609 196.007 617.788C193.482 619.968 190.26 621.168 186.926 621.17H159.322C156.506 621.168 153.756 620.312 151.437 618.714C149.117 617.116 147.335 614.852 146.327 612.22L109.005 504.36C101.094 483.647 98.955 461.171 102.818 439.336L122.987 334.452L125.28 322.526H300.449L322.905 439.336C326.767 461.167 324.628 483.639 316.717 504.348Z" fill="#00CC66" stroke="#212121" stroke-width="4" stroke-linejoin="round"/>
<path d="M300.458 322.528H125.279L122.986 334.454C122.986 334.454 129.994 339.195 142.09 339.545C154.186 339.896 212.872 339.545 212.872 339.545C212.872 339.545 271.549 339.897 283.652 339.545C295.756 339.194 302.756 334.454 302.756 334.454L300.458 322.528Z" fill="#007A3D" stroke="#212121" stroke-width="4" stroke-linejoin="round"/>
<path d="M221.243 355.524L220.858 347.272L212.869 345.956L204.879 347.272L204.495 355.524L194.757 450.08C194.638 450.792 194.67 451.521 194.849 452.22C195.029 452.92 195.352 453.574 195.799 454.141L208.813 470.637C209.296 471.25 209.913 471.746 210.615 472.087C211.318 472.427 212.088 472.605 212.869 472.605C213.649 472.605 214.42 472.427 215.122 472.087C215.825 471.746 216.441 471.25 216.925 470.637L229.938 454.141C230.385 453.574 230.709 452.92 230.888 452.22C231.068 451.521 231.099 450.792 230.98 450.08L221.243 355.524Z" fill="#007A3D" stroke="#212121" stroke-width="4" stroke-linejoin="round"/>
<path d="M227.206 328.729H198.531L194.379 339.7L204.494 355.524C205.497 354.264 206.771 353.247 208.221 352.548C209.671 351.849 211.259 351.486 212.868 351.486C214.478 351.486 216.066 351.849 217.516 352.548C218.966 353.247 220.24 354.264 221.243 355.524L231.358 339.7L227.206 328.729Z" fill="#007A3D" stroke="#212121" stroke-width="4" stroke-linejoin="round"/>
<path d="M300.448 322.528C300.448 322.528 296.426 338.319 286.608 345.954C276.789 353.588 283.611 375.011 293.528 377.469C299.26 378.965 305.279 378.965 311.011 377.469L300.448 322.528Z" fill="#99EBC2" stroke="#212121" stroke-width="4" stroke-linejoin="round"/>
<path d="M125.371 322.528C125.371 322.528 129.393 338.319 139.213 345.954C149.032 353.588 142.208 375.011 132.292 377.469C126.56 378.965 120.541 378.965 114.809 377.469L125.371 322.528Z" fill="#99EBC2" stroke="#212121" stroke-width="4" stroke-linejoin="round"/>
<path d="M314.79 87.7056C309.071 73.9662 314.79 39.4726 314.79 39.4726C295.778 43.6232 262.178 73.9698 262.178 73.9698C280.406 45.7251 266.466 1.83398 266.466 1.83398C266.466 1.83398 243.942 49.9755 174.68 73.9698C99.2901 100.081 82.6964 149.859 78.8171 173.367C77.5983 178.345 77.052 183.464 77.1929 188.588C77.1929 189.162 77.1709 192.447 77.1709 192.447V254.733C77.1708 264.451 79.0826 274.073 82.7972 283.051C86.5117 292.028 91.9561 300.185 98.8198 307.057C105.683 313.928 113.832 319.378 122.8 323.097C131.768 326.816 141.379 328.73 151.086 328.73H269.752C289.356 328.729 308.156 320.933 322.018 307.056C335.88 293.179 343.667 274.358 343.667 254.733V189.468C343.67 147.532 320.509 101.446 314.79 87.7056Z" fill="#00CC66" stroke="#212121" stroke-width="4" stroke-linejoin="round"/>
<path d="M270.92 301.731H150.409C144.059 301.731 137.772 300.472 131.911 298.027C126.05 295.582 120.731 291.998 116.261 287.484C111.791 282.969 108.258 277.613 105.867 271.725C103.476 265.836 102.273 259.531 102.33 253.175L102.892 189.556C103.004 176.864 108.119 164.731 117.123 155.797C126.128 146.862 138.293 141.85 150.971 141.851H271.078C277.401 141.851 283.663 143.099 289.504 145.525C295.345 147.952 300.65 151.507 305.116 155.989C309.582 160.471 313.121 165.79 315.531 171.643C317.94 177.496 319.172 183.768 319.157 190.098L319.003 253.717C318.972 266.462 313.892 278.675 304.878 287.676C295.864 296.678 283.651 301.732 270.92 301.731Z" fill="#212121"/>
<path d="M163.065 237.064C172.5 237.064 180.148 225.218 180.148 210.604C180.148 195.991 172.5 184.145 163.065 184.145C153.63 184.145 145.981 195.991 145.981 210.604C145.981 225.218 153.63 237.064 163.065 237.064Z" fill="#99EBC2"/>
<path d="M258.358 237.064C267.793 237.064 275.441 225.218 275.441 210.604C275.441 195.991 267.793 184.145 258.358 184.145C248.923 184.145 241.274 195.991 241.274 210.604C241.274 225.218 248.923 237.064 258.358 237.064Z" fill="#99EBC2"/>
<path d="M184.487 258.592H236.935C236.935 258.592 239.695 279.029 210.711 279.029C181.726 279.029 184.487 258.592 184.487 258.592Z" fill="#99EBC2"/>
<path d="M356.329 174.098V257.458H372.629C372.629 257.458 384.976 243.026 384.976 214.36C384.976 185.693 373.74 174.102 373.74 174.102L356.329 174.098Z" fill="#00A352" stroke="#212121" stroke-width="4" stroke-linejoin="round"/>
<path d="M356.328 174.098H343.67V257.457H356.328V174.098Z" fill="#007A3D" stroke="#212121" stroke-width="4" stroke-linejoin="round"/>
<path d="M275.445 263.599V275.376H260.657C259.097 275.376 257.601 274.755 256.498 273.651C255.395 272.547 254.775 271.049 254.775 269.487C254.775 267.926 255.395 266.428 256.498 265.324C257.601 264.219 259.097 263.599 260.657 263.599H275.445Z" fill="#99EBC2" stroke="#212121" stroke-width="4" stroke-linejoin="round"/>
<path d="M376.149 221.05V234.489C376.149 237.73 374.98 240.862 372.858 243.309L364.389 253.061L350 269.639C348.441 271.443 346.511 272.889 344.343 273.879C342.174 274.868 339.818 275.377 337.435 275.372H275.445V263.599H332.07C334.452 263.601 336.807 263.09 338.974 262.101C341.142 261.112 343.072 259.668 344.633 257.867L361.093 238.905C363.214 236.457 364.383 233.326 364.383 230.085V221.05H376.149Z" fill="#007A3D" stroke="#212121" stroke-width="3" stroke-miterlimit="10"/>
</g>
<defs>
<clipPath id="clip0_488_7100">
<rect width="459" height="623" fill="white"/>
</clipPath>
</defs>
</svg>
