<svg width="286" height="379" viewBox="0 0 286 379" fill="none" xmlns="http://www.w3.org/2000/svg">
<path d="M271.897 30.8152L60.3833 2.80016C52.877 1.80596 45.986 7.08503 44.9918 14.5913L2.80058 333.137C1.80638 340.643 7.08543 347.534 14.5917 348.528L226.106 376.543C233.612 377.537 240.503 372.258 241.497 364.752L283.689 46.2066C284.683 38.7003 279.404 31.8094 271.897 30.8152Z" fill="#007A3D" stroke="#212121" stroke-width="4"/>
<path d="M255.643 28.6622L60.4858 2.81371C52.9795 1.81951 46.0886 7.09855 45.0944 14.6048L2.91166 333.086C1.91746 340.592 7.19651 347.483 14.7028 348.477L209.86 374.326C217.366 375.32 224.257 370.041 225.251 362.535L267.434 44.0536C268.428 36.5474 263.149 29.6564 255.643 28.6622Z" fill="#99EBC2" stroke="#212121" stroke-width="4"/>
<path d="M95.0872 97.1313L52.3359 91.4689L46.6735 134.22L89.4248 139.883L95.0872 97.1313Z" fill="white" stroke="#212121" stroke-width="2"/>
<path d="M143.528 103.547L100.776 97.8849L95.114 140.636L137.865 146.299L143.528 103.547Z" fill="white" stroke="#212121" stroke-width="2"/>
<path d="M191.979 109.965L149.228 104.302L143.565 147.053L186.316 152.716L191.979 109.965Z" fill="#00CC66" stroke="#212121" stroke-width="2"/>
<path d="M240.42 116.381L197.669 110.718L192.007 153.469L234.758 159.132L240.42 116.381Z" fill="#00CC66" stroke="#212121" stroke-width="2"/>
<path d="M88.5931 146.166L45.8418 140.503L40.1794 183.255L82.9307 188.917L88.5931 146.166Z" fill="#89A3AB" stroke="#212121" stroke-width="2"/>
<path d="M137.033 152.582L94.2822 146.919L88.6198 189.671L131.371 195.333L137.033 152.582Z" fill="#89A3AB" stroke="#212121" stroke-width="2"/>
<path d="M185.485 158.999L142.733 153.337L137.071 196.088L179.822 201.75L185.485 158.999Z" fill="#89A3AB" stroke="#212121" stroke-width="2"/>
<path d="M233.884 165.723L191.133 160.061L185.47 202.812L228.222 208.475L233.884 165.723Z" fill="white" stroke="#212121" stroke-width="2"/>
<path d="M82.0979 195.201L39.3467 189.538L33.6843 232.289L76.4355 237.952L82.0979 195.201Z" fill="#89A3AB" stroke="#212121" stroke-width="2"/>
<path d="M130.538 201.616L87.7871 195.954L82.1247 238.705L124.876 244.368L130.538 201.616Z" fill="#89A3AB" stroke="#212121" stroke-width="2"/>
<path d="M178.99 208.034L136.238 202.371L130.576 245.123L173.327 250.785L178.99 208.034Z" fill="#89A3AB" stroke="#212121" stroke-width="2"/>
<path d="M227.43 214.45L184.679 208.787L179.016 251.539L221.768 257.201L227.43 214.45Z" fill="white" stroke="#212121" stroke-width="2"/>
<path d="M75.6028 244.235L32.8516 238.573L27.1892 281.324L69.9404 286.986L75.6028 244.235Z" fill="#89A3AB" stroke="#212121" stroke-width="2"/>
<path d="M124.044 250.651L81.293 244.989L75.6306 287.74L118.382 293.402L124.044 250.651Z" fill="#89A3AB" stroke="#212121" stroke-width="2"/>
<path d="M172.495 257.068L129.744 251.406L124.082 294.157L166.833 299.82L172.495 257.068Z" fill="#89A3AB" stroke="#212121" stroke-width="2"/>
<path d="M220.936 263.484L178.185 257.822L172.522 300.573L215.273 306.236L220.936 263.484Z" fill="white" stroke="#212121" stroke-width="2"/>
<path d="M69.1087 293.27L26.3574 287.607L20.695 330.359L63.4463 336.021L69.1087 293.27Z" fill="#89A3AB" stroke="#212121" stroke-width="2"/>
<path d="M117.549 299.686L74.7979 294.023L69.1355 336.775L111.887 342.437L117.549 299.686Z" fill="#89A3AB" stroke="#212121" stroke-width="2"/>
<path d="M166 306.103L123.249 300.441L117.587 343.192L160.338 348.854L166 306.103Z" fill="white" stroke="#212121" stroke-width="2"/>
<path d="M214.441 312.519L171.689 306.857L166.027 349.608L208.778 355.27L214.441 312.519Z" fill="white" stroke="#212121" stroke-width="2"/>
<path d="M65.0759 110.68C65.1058 110.271 65.2182 109.873 65.4063 109.509C65.5944 109.145 65.8543 108.823 66.1704 108.563C66.4864 108.302 66.852 108.108 67.2451 107.993C67.6381 107.878 68.0505 107.843 68.4573 107.892C68.8578 107.95 69.2424 108.089 69.5875 108.301C69.9327 108.512 70.2312 108.792 70.4649 109.122C70.6987 109.453 70.8628 109.827 70.9473 110.223C71.0318 110.619 71.035 111.028 70.9565 111.425C70.9266 111.834 70.8142 112.233 70.6261 112.598C70.438 112.962 70.1782 113.285 69.8621 113.546C69.5461 113.808 69.1805 114.003 68.7872 114.119C68.394 114.236 67.9812 114.271 67.5737 114.224C67.1728 114.164 66.7882 114.024 66.4432 113.811C66.0982 113.598 65.7999 113.318 65.5664 112.987C65.3329 112.655 65.1691 112.28 65.0848 111.884C65.0005 111.487 64.9974 111.078 65.0759 110.68ZM69.3676 111.248C69.4987 110.258 69.0358 109.357 68.2325 109.25C67.4292 109.144 66.7917 109.899 66.6649 110.857C66.5293 111.88 66.9966 112.748 67.7999 112.855C68.6032 112.961 69.2408 112.206 69.3676 111.248ZM66.0663 119.265L75.7203 109.19C75.7961 109.094 75.8966 109.022 76.0107 108.98C76.1248 108.938 76.2484 108.928 76.3678 108.951C76.46 108.961 76.5491 108.99 76.6299 109.036C76.7108 109.081 76.7818 109.142 76.8388 109.216C76.8958 109.289 76.9376 109.373 76.9619 109.462C76.9862 109.552 76.9924 109.645 76.9803 109.737C76.9546 109.903 76.8796 110.057 76.765 110.179L67.111 120.254C67.0291 120.345 66.9262 120.414 66.8114 120.455C66.6966 120.497 66.5733 120.509 66.4525 120.492C66.3608 120.481 66.2722 120.452 66.192 120.407C66.1118 120.361 66.0415 120.3 65.9854 120.227C65.9293 120.153 65.8885 120.07 65.8654 119.98C65.8423 119.891 65.8374 119.798 65.851 119.707C65.8617 119.544 65.9214 119.388 66.0223 119.259L66.0663 119.265ZM71.8249 118.057C71.8548 117.648 71.9671 117.25 72.1553 116.886C72.3434 116.522 72.6033 116.2 72.9193 115.94C73.2354 115.679 73.601 115.485 73.9941 115.37C74.3871 115.255 74.7995 115.22 75.2063 115.269C75.6062 115.329 75.9898 115.469 76.3342 115.681C76.6785 115.893 76.9764 116.172 77.2099 116.502C77.4434 116.832 77.6077 117.206 77.6928 117.602C77.778 117.997 77.7823 118.405 77.7055 118.802C77.6756 119.21 77.5637 119.608 77.3764 119.972C77.1891 120.336 76.9303 120.658 76.6155 120.92C76.3007 121.181 75.9363 121.377 75.5442 121.494C75.1521 121.611 74.7404 121.648 74.3337 121.603C73.9256 121.551 73.5325 121.416 73.1786 121.206C72.8247 120.997 72.5176 120.716 72.2763 120.383C72.035 120.05 71.8645 119.671 71.7755 119.269C71.6865 118.868 71.6809 118.452 71.7589 118.048L71.8249 118.057ZM76.1165 118.625C76.2477 117.635 75.7848 116.734 74.9925 116.629C74.2002 116.524 73.5407 117.276 73.4139 118.234C73.2783 119.257 73.7456 120.125 74.5489 120.232C75.3522 120.338 75.9237 119.574 76.0505 118.617L76.1165 118.625Z" fill="#89A3AB"/>
<path d="M205.853 183.767C205.892 183.475 206.045 183.21 206.279 183.031C206.512 182.852 206.808 182.773 207.099 182.812L212.602 183.541C212.826 183.635 213.014 183.801 213.135 184.012C213.256 184.223 213.305 184.469 213.273 184.71C213.241 184.952 213.13 185.176 212.958 185.349C212.786 185.521 212.562 185.632 212.32 185.665L206.818 184.936C206.539 184.9 206.284 184.759 206.105 184.542C205.926 184.325 205.836 184.048 205.853 183.767Z" fill="#89A3AB"/>
<path d="M199.702 233.082C199.457 233.049 199.235 232.921 199.084 232.725C198.934 232.528 198.868 232.28 198.9 232.035C198.933 231.79 199.061 231.568 199.257 231.417C199.454 231.267 199.702 231.201 199.947 231.233L207.144 232.186C207.389 232.219 207.611 232.347 207.761 232.544C207.912 232.74 207.978 232.988 207.946 233.233C207.913 233.478 207.785 233.701 207.588 233.851C207.392 234.001 207.144 234.068 206.899 234.035L199.702 233.082ZM205.141 229.044L205.13 229.132C205.06 229.433 204.881 229.698 204.627 229.874C204.372 230.051 204.062 230.126 203.755 230.085C203.448 230.045 203.168 229.891 202.968 229.655C202.768 229.418 202.664 229.116 202.676 228.807L202.687 228.719C202.757 228.417 202.936 228.152 203.19 227.976C203.445 227.8 203.755 227.724 204.062 227.765C204.369 227.806 204.649 227.959 204.849 228.196C205.049 228.432 205.153 228.734 205.141 229.044ZM204.159 236.46L204.146 236.559C204.076 236.861 203.897 237.126 203.643 237.302C203.389 237.478 203.078 237.554 202.771 237.513C202.464 237.472 202.184 237.319 201.984 237.082C201.785 236.846 201.68 236.544 201.692 236.234L201.705 236.135C201.774 235.834 201.954 235.569 202.208 235.393C202.462 235.216 202.773 235.141 203.08 235.182C203.387 235.222 203.667 235.376 203.867 235.612C204.066 235.849 204.17 236.151 204.159 236.46Z" fill="#89A3AB"/>
<path d="M199.985 280.988L197.397 283.623L199.12 286.841C199.237 287.054 199.267 287.304 199.202 287.538C199.138 287.772 198.985 287.972 198.775 288.095C198.593 288.195 198.384 288.237 198.177 288.217C197.878 288.151 197.617 287.972 197.448 287.717L196.086 285.062L193.982 287.258C193.879 287.362 193.756 287.442 193.619 287.494C193.483 287.545 193.337 287.567 193.192 287.557C192.989 287.524 192.802 287.429 192.657 287.284C192.567 287.202 192.494 287.103 192.444 286.992C192.393 286.881 192.366 286.761 192.363 286.639C192.36 286.517 192.382 286.396 192.428 286.283C192.473 286.17 192.541 286.067 192.628 285.981L195.152 283.326L193.383 280.113C193.322 280.01 193.283 279.895 193.268 279.775C193.254 279.656 193.264 279.535 193.298 279.42C193.332 279.305 193.39 279.198 193.467 279.106C193.544 279.014 193.639 278.939 193.747 278.885C193.854 278.825 193.972 278.786 194.094 278.771C194.216 278.756 194.34 278.766 194.459 278.799C194.577 278.833 194.688 278.889 194.784 278.966C194.88 279.042 194.961 279.137 195.021 279.244L196.487 281.868L198.575 279.715C198.761 279.539 199.007 279.441 199.263 279.439C199.518 279.438 199.765 279.534 199.953 279.707C200.126 279.873 200.227 280.101 200.233 280.341C200.239 280.581 200.15 280.813 199.985 280.988Z" fill="#89A3AB"/>
<path d="M45.1858 315.295C45.5376 315.344 45.8559 315.53 46.072 315.812C46.2881 316.094 46.3847 316.45 46.3409 316.803C46.2915 317.154 46.1055 317.471 45.8233 317.685C45.5412 317.899 45.1858 317.994 44.8345 317.947C44.6605 317.925 44.4925 317.869 44.3404 317.782C44.1882 317.695 44.0549 317.579 43.9483 317.439C43.8417 317.3 43.7638 317.141 43.7193 316.972C43.6747 316.802 43.6644 316.625 43.6889 316.452C43.7354 316.1 43.9188 315.782 44.1992 315.565C44.4796 315.348 44.8342 315.251 45.1858 315.295Z" fill="#212121"/>
<path d="M138.233 322.491C138.287 322.213 138.445 321.966 138.675 321.801C138.905 321.636 139.19 321.565 139.471 321.602L144.973 322.331C145.108 322.349 145.238 322.393 145.356 322.462C145.474 322.531 145.578 322.622 145.66 322.731C145.742 322.84 145.802 322.964 145.837 323.096C145.871 323.228 145.878 323.366 145.859 323.501C145.844 323.637 145.802 323.768 145.735 323.887C145.668 324.005 145.578 324.109 145.469 324.192C145.361 324.275 145.237 324.336 145.105 324.369C144.973 324.403 144.835 324.41 144.7 324.389L139.198 323.66C139.056 323.65 138.918 323.612 138.792 323.547C138.666 323.482 138.554 323.393 138.464 323.283C138.374 323.174 138.307 323.047 138.267 322.911C138.227 322.775 138.216 322.632 138.233 322.491ZM137.796 325.792C137.835 325.5 137.988 325.236 138.221 325.057C138.455 324.878 138.75 324.799 139.042 324.837L144.544 325.566C144.769 325.66 144.956 325.826 145.078 326.037C145.199 326.249 145.247 326.494 145.215 326.736C145.183 326.977 145.073 327.202 144.901 327.374C144.728 327.546 144.504 327.658 144.263 327.69L138.761 326.961C138.48 326.925 138.224 326.782 138.045 326.563C137.866 326.343 137.777 326.064 137.797 325.781L137.796 325.792Z" fill="#89A3AB"/>
<path d="M189.291 331.549L186.76 331.214C186.5 331.179 186.265 331.043 186.105 330.835C185.946 330.627 185.876 330.364 185.91 330.104C185.95 329.847 186.088 329.615 186.294 329.457C186.501 329.299 186.761 329.226 187.019 329.255L189.55 329.59L189.877 327.125C189.892 326.99 189.933 326.86 190 326.742C190.066 326.624 190.155 326.52 190.262 326.437C190.369 326.354 190.492 326.294 190.623 326.259C190.754 326.224 190.891 326.217 191.025 326.236C191.294 326.274 191.537 326.418 191.701 326.634C191.865 326.851 191.937 327.124 191.901 327.393L191.575 329.858L194.106 330.193C194.363 330.233 194.595 330.371 194.754 330.577C194.912 330.784 194.984 331.044 194.956 331.303C194.921 331.562 194.785 331.798 194.577 331.957C194.369 332.116 194.106 332.187 193.847 332.152L191.316 331.817L190.988 334.293C190.952 334.561 190.811 334.805 190.596 334.97C190.381 335.134 190.11 335.207 189.841 335.171C189.708 335.155 189.579 335.112 189.462 335.046C189.345 334.979 189.243 334.89 189.161 334.783C189.079 334.676 189.019 334.554 188.985 334.424C188.951 334.294 188.944 334.158 188.963 334.025L189.291 331.549Z" fill="#89A3AB"/>
<path d="M126.244 116.867C126.218 117.068 126.112 117.251 125.951 117.374C125.79 117.498 125.586 117.552 125.385 117.526L123.184 117.234C121.906 119.696 118.644 126.15 117.873 127.997C117.762 128.214 117.603 128.404 117.408 128.551C117.247 128.655 117.055 128.701 116.864 128.68C116.73 128.665 116.6 128.621 116.484 128.552C116.367 128.482 116.267 128.389 116.19 128.278C116.19 128.278 114.12 125.641 113.492 124.718C112.546 123.406 113.114 122.921 113.282 122.843C113.421 122.776 113.575 122.747 113.73 122.756C113.969 122.812 114.189 122.93 114.367 123.098L115.031 124.004C115.219 124.275 115.401 124.512 115.584 124.737L116.107 125.434L116.699 126.206C117.499 124.476 120.947 117.722 121.853 116.039C121.923 115.953 122.004 115.877 122.095 115.814C122.178 115.742 122.275 115.688 122.379 115.655C122.484 115.623 122.594 115.613 122.703 115.625L125.542 116.001C125.646 116.009 125.747 116.038 125.84 116.086C125.932 116.135 126.014 116.201 126.08 116.282C126.146 116.363 126.194 116.457 126.223 116.558C126.251 116.658 126.258 116.763 126.244 116.867Z" fill="#89A3AB"/>
<path d="M249.688 46.4834L61.5938 21.5703L55.6326 66.5774L243.727 91.4905L249.688 46.4834Z" fill="white" stroke="#212121" stroke-width="2"/>
<path d="M153.48 46.1535L150.472 69.2309L146.291 68.6859L148.77 49.6763L148.634 49.6587L142.787 52.4031L143.287 48.5719L149.503 45.6349L153.48 46.1535ZM156.331 69.9948L156.725 66.9749L165.761 60.1654C166.628 59.4915 167.356 58.8874 167.945 58.353C168.534 57.8187 168.993 57.2864 169.322 56.7563C169.651 56.2262 169.857 55.6419 169.94 55.0033C170.035 54.2746 169.951 53.6296 169.688 53.0681C169.426 52.4992 169.025 52.0343 168.484 51.6734C167.942 51.3125 167.304 51.0841 166.567 50.9881C165.809 50.8892 165.123 50.9603 164.511 51.2014C163.9 51.435 163.4 51.8167 163.01 52.3464C162.627 52.8772 162.385 53.537 162.282 54.3258L158.304 53.8072C158.495 52.3423 158.995 51.1126 159.805 50.118C160.615 49.1234 161.644 48.4058 162.893 47.9651C164.15 47.5254 165.541 47.4049 167.066 47.6037C168.613 47.8055 169.935 48.272 171.032 49.0032C172.128 49.7344 172.934 50.6454 173.449 51.7363C173.971 52.8281 174.148 54.0201 173.98 55.3122C173.867 56.1761 173.591 57.0034 173.152 57.7942C172.713 58.585 172.01 59.4331 171.044 60.3385C170.085 61.2449 168.765 62.3218 167.082 63.5693L162.577 67.096L162.556 67.2538L172.607 68.5642L172.152 72.0573L156.331 69.9948ZM184.281 73.9594C182.658 73.7478 181.252 73.2819 180.062 72.5614C178.88 71.842 177.989 70.9389 177.39 69.8523C176.791 68.7657 176.553 67.5697 176.677 66.2642L180.914 66.8166C180.871 67.445 181.006 68.0165 181.321 68.5313C181.637 69.0385 182.09 69.4604 182.68 69.7971C183.27 70.1338 183.952 70.3526 184.726 70.4535C185.553 70.5612 186.304 70.514 186.979 70.3117C187.656 70.102 188.209 69.7615 188.637 69.2902C189.065 68.8188 189.319 68.2446 189.4 67.5675C189.498 66.8699 189.398 66.2304 189.1 65.649C188.801 65.0677 188.322 64.5812 187.663 64.1896C187.011 63.7991 186.197 63.5401 185.22 63.4128L183.181 63.1469L183.601 59.9242L185.64 60.1901C186.444 60.2949 187.165 60.2474 187.802 60.0478C188.446 59.8492 188.974 59.5208 189.386 59.0625C189.798 58.5967 190.044 58.0291 190.123 57.3595C190.216 56.7069 190.143 56.1206 189.906 55.6007C189.676 55.0742 189.309 54.6405 188.803 54.2995C188.305 53.9596 187.695 53.7426 186.974 53.6485C186.268 53.5565 185.598 53.599 184.964 53.7761C184.329 53.9531 183.797 54.2543 183.368 54.6796C182.939 55.0973 182.671 55.6278 182.564 56.2709L178.541 55.7465C178.74 54.4583 179.26 53.3724 180.101 52.4889C180.95 51.5988 182.012 50.9579 183.285 50.5662C184.559 50.167 185.944 50.0648 187.439 50.2597C188.979 50.4605 190.278 50.924 191.337 51.6504C192.405 52.3701 193.187 53.2552 193.684 54.3056C194.181 55.3559 194.354 56.4671 194.201 57.639C194.039 58.9396 193.514 59.9789 192.626 60.7569C191.745 61.536 190.663 61.9794 189.381 62.0873L189.357 62.2676C190.951 62.7045 192.116 63.4675 192.852 64.5567C193.597 65.6394 193.872 66.9014 193.676 68.3428C193.508 69.6349 192.989 70.7438 192.12 71.6695C191.259 72.5886 190.148 73.2537 188.788 73.6646C187.436 74.0766 185.933 74.1748 184.281 73.9594ZM196.85 70.9224L197.283 67.5983L209.092 53.4035L211.864 53.7649L211.247 58.4975L209.557 58.2772L201.603 67.8635L201.58 68.0438L215.248 69.8257L214.8 73.2625L196.85 70.9224ZM207.301 76.6396L207.991 71.3435L208.23 69.8619L210.354 53.568L214.298 54.0822L211.29 77.1596L207.301 76.6396ZM225.824 79.3753C224.322 79.1794 223.014 78.7224 221.9 78.0043C220.788 77.2786 219.947 76.3744 219.377 75.2917C218.815 74.21 218.595 73.0277 218.717 71.7448L222.773 72.2736C222.725 73.2299 223.033 74.0571 223.699 74.755C224.365 75.4454 225.22 75.8587 226.265 75.9948C227.083 76.1016 227.837 76.0088 228.524 75.7164C229.212 75.424 229.783 74.9675 230.238 74.347C230.694 73.7264 230.973 72.9874 231.077 72.13C231.198 71.2596 231.115 70.4618 230.828 69.7368C230.54 69.0117 230.095 68.415 229.491 67.9467C228.889 67.4708 228.163 67.1776 227.314 67.0669C226.624 66.9693 225.927 67.0084 225.224 67.1841C224.522 67.3599 223.947 67.6364 223.5 68.0137L219.806 66.9018L222.563 55.1597L235.95 56.9049L235.495 60.3981L225.567 59.1039L224.105 65.1359L224.24 65.1535C224.734 64.706 225.393 64.3679 226.217 64.1392C227.043 63.903 227.921 63.8456 228.853 63.9671C230.25 64.1492 231.454 64.6424 232.464 65.4464C233.476 66.243 234.222 67.257 234.704 68.4887C235.185 69.7203 235.329 71.0761 235.136 72.556C234.937 74.0809 234.407 75.3946 233.545 76.497C232.692 77.5928 231.597 78.4013 230.261 78.9223C228.933 79.4368 227.454 79.5878 225.824 79.3753Z" fill="#212121"/>
<path d="M168.03 126.864L165.66 126.555C165.643 126.157 165.563 125.796 165.42 125.473C165.278 125.145 165.086 124.857 164.843 124.611C164.6 124.364 164.312 124.166 163.98 124.015C163.652 123.86 163.289 123.757 162.892 123.705C162.186 123.613 161.538 123.709 160.946 123.993C160.356 124.273 159.862 124.733 159.464 125.373C159.068 126.009 158.806 126.815 158.678 127.791C158.549 128.784 158.594 129.64 158.814 130.361C159.038 131.078 159.398 131.645 159.894 132.062C160.395 132.475 160.996 132.728 161.697 132.819C162.086 132.87 162.456 132.867 162.807 132.809C163.163 132.748 163.49 132.634 163.786 132.466C164.088 132.299 164.35 132.08 164.575 131.808C164.804 131.538 164.979 131.217 165.1 130.846L167.469 131.167C167.3 131.773 167.032 132.327 166.666 132.829C166.304 133.332 165.859 133.759 165.332 134.112C164.805 134.46 164.21 134.709 163.545 134.859C162.882 135.004 162.163 135.027 161.39 134.926C160.249 134.777 159.265 134.38 158.438 133.735C157.611 133.09 157.005 132.235 156.62 131.171C156.234 130.106 156.132 128.877 156.314 127.482C156.497 126.084 156.912 124.922 157.562 123.997C158.212 123.067 159.019 122.397 159.983 121.985C160.948 121.574 161.997 121.442 163.129 121.59C163.852 121.684 164.51 121.873 165.105 122.157C165.7 122.441 166.215 122.811 166.649 123.267C167.084 123.719 167.422 124.249 167.66 124.856C167.904 125.459 168.027 126.128 168.03 126.864ZM169.062 135.746L170.755 122.765L179.198 123.866L178.941 125.837L172.849 125.043L172.39 128.567L178.044 129.304L177.787 131.275L172.133 130.538L171.671 134.081L177.813 134.882L177.555 136.853L169.062 135.746Z" fill="#212121"/>
<path d="M59.146 171.061L66.0918 160.854L66.1034 160.765L59.6953 159.929L59.9515 157.965L68.7935 159.118L68.5315 161.127L61.5863 171.38L59.146 171.061Z" fill="#212121"/>
<path d="M112.262 177.779C111.32 177.656 110.504 177.388 109.814 176.976C109.128 176.564 108.614 176.057 108.272 175.453C107.934 174.846 107.813 174.192 107.909 173.491C107.976 172.946 108.159 172.46 108.46 172.036C108.76 171.611 109.135 171.273 109.585 171.022C110.039 170.767 110.525 170.631 111.043 170.613L111.055 170.524C110.407 170.289 109.91 169.878 109.565 169.292C109.225 168.702 109.103 168.056 109.199 167.355C109.282 166.687 109.546 166.116 109.99 165.641C110.434 165.166 111.004 164.821 111.698 164.606C112.392 164.388 113.16 164.333 114.001 164.443C114.833 164.551 115.555 164.8 116.166 165.189C116.782 165.575 117.244 166.054 117.552 166.627C117.864 167.2 117.976 167.821 117.889 168.489C117.797 169.19 117.508 169.782 117.019 170.264C116.536 170.742 115.957 171.013 115.283 171.075L115.271 171.164C115.767 171.315 116.198 171.571 116.563 171.932C116.933 172.29 117.209 172.712 117.391 173.2C117.576 173.689 117.633 174.205 117.562 174.75C117.471 175.452 117.182 176.052 116.696 176.552C116.21 177.047 115.583 177.406 114.815 177.628C114.051 177.851 113.2 177.901 112.262 177.779ZM112.498 175.966C112.984 176.029 113.417 176.002 113.798 175.884C114.179 175.762 114.489 175.561 114.727 175.283C114.966 175.005 115.113 174.667 115.169 174.271C115.219 173.856 115.159 173.476 114.989 173.132C114.823 172.784 114.571 172.495 114.231 172.266C113.896 172.038 113.498 171.893 113.037 171.833C112.572 171.773 112.146 171.809 111.759 171.944C111.372 172.078 111.052 172.292 110.799 172.586C110.551 172.875 110.401 173.228 110.352 173.642C110.296 174.039 110.347 174.402 110.506 174.733C110.666 175.058 110.914 175.329 111.251 175.545C111.592 175.762 112.008 175.902 112.498 175.966ZM113.269 170.052C113.667 170.104 114.028 170.069 114.353 169.948C114.682 169.828 114.955 169.636 115.17 169.372C115.385 169.107 115.519 168.788 115.572 168.412C115.616 168.04 115.57 167.703 115.433 167.401C115.297 167.095 115.084 166.846 114.796 166.654C114.507 166.458 114.163 166.333 113.761 166.281C113.351 166.227 112.98 166.258 112.647 166.374C112.319 166.486 112.049 166.672 111.839 166.933C111.634 167.189 111.509 167.504 111.465 167.876C111.411 168.252 111.453 168.595 111.588 168.905C111.729 169.211 111.943 169.466 112.23 169.672C112.521 169.873 112.868 170 113.269 170.052Z" fill="#212121"/>
<path d="M161.893 171.429C162.514 171.514 163.104 171.702 163.663 171.995C164.227 172.283 164.714 172.699 165.125 173.242C165.536 173.782 165.828 174.471 166.003 175.31C166.177 176.149 166.187 177.16 166.032 178.344C165.891 179.46 165.643 180.441 165.287 181.289C164.937 182.133 164.5 182.828 163.977 183.374C163.455 183.921 162.86 184.312 162.194 184.547C161.527 184.782 160.803 184.849 160.021 184.747C159.201 184.64 158.495 184.385 157.903 183.981C157.316 183.578 156.864 183.072 156.548 182.463C156.232 181.855 156.076 181.186 156.081 180.456L158.395 180.758C158.446 181.289 158.633 181.73 158.957 182.081C159.285 182.429 159.729 182.64 160.286 182.713C161.186 182.83 161.93 182.529 162.518 181.811C163.106 181.093 163.491 180.038 163.672 178.648L163.583 178.637C163.328 178.981 163.018 179.268 162.653 179.495C162.288 179.718 161.888 179.874 161.451 179.964C161.018 180.053 160.569 180.068 160.104 180.007C159.343 179.908 158.683 179.637 158.122 179.194C157.565 178.752 157.15 178.191 156.878 177.511C156.61 176.831 156.527 176.083 156.629 175.267C156.739 174.422 157.032 173.689 157.509 173.068C157.99 172.443 158.607 171.982 159.359 171.685C160.111 171.383 160.956 171.298 161.893 171.429ZM161.652 173.331C161.195 173.271 160.769 173.33 160.372 173.506C159.98 173.678 159.653 173.941 159.392 174.293C159.136 174.642 158.978 175.049 158.917 175.514C158.861 175.975 158.91 176.407 159.064 176.81C159.222 177.213 159.464 177.547 159.791 177.813C160.121 178.08 160.517 178.243 160.977 178.303C161.32 178.348 161.647 178.324 161.96 178.232C162.273 178.139 162.554 177.991 162.804 177.787C163.059 177.58 163.268 177.334 163.429 177.05C163.595 176.767 163.698 176.458 163.737 176.123C163.795 175.68 163.743 175.256 163.58 174.852C163.422 174.449 163.177 174.11 162.843 173.834C162.514 173.559 162.116 173.391 161.652 173.331Z" fill="#212121"/>
<path d="M51.7502 217.56L51.9941 215.69L58.637 207.706L60.1963 207.909L59.8491 210.571L58.8983 210.448L54.4241 215.84L54.4109 215.941L62.0994 216.944L61.8473 218.877L51.7502 217.56ZM57.6287 220.776L58.0172 217.797L58.1517 216.964L59.3469 207.799L61.5654 208.088L59.8725 221.069L57.6287 220.776Z" fill="#212121"/>
<path d="M105.16 226.765C104.315 226.655 103.58 226.398 102.953 225.994C102.328 225.586 101.855 225.077 101.534 224.468C101.218 223.86 101.094 223.195 101.163 222.473L103.445 222.771C103.417 223.308 103.591 223.774 103.965 224.166C104.34 224.555 104.821 224.787 105.408 224.864C105.869 224.924 106.293 224.872 106.679 224.707C107.066 224.543 107.388 224.286 107.644 223.937C107.9 223.588 108.057 223.172 108.116 222.69C108.184 222.2 108.137 221.752 107.975 221.344C107.814 220.936 107.563 220.6 107.224 220.337C106.885 220.069 106.476 219.904 105.999 219.842C105.611 219.787 105.219 219.809 104.823 219.908C104.428 220.007 104.105 220.162 103.854 220.374L101.776 219.749L103.327 213.144L110.857 214.126L110.601 216.091L105.017 215.363L104.194 218.756L104.27 218.765C104.548 218.514 104.918 218.324 105.382 218.195C105.846 218.062 106.34 218.03 106.864 218.098C107.65 218.201 108.328 218.478 108.896 218.93C109.465 219.379 109.885 219.949 110.155 220.642C110.426 221.335 110.507 222.097 110.399 222.93C110.287 223.787 109.988 224.526 109.504 225.146C109.023 225.763 108.408 226.218 107.656 226.511C106.909 226.8 106.077 226.885 105.16 226.765Z" fill="#212121"/>
<path d="M154.401 233.797C153.781 233.711 153.188 233.525 152.624 233.236C152.061 232.944 151.574 232.526 151.163 231.982C150.754 231.434 150.462 230.741 150.287 229.902C150.114 229.058 150.107 228.041 150.266 226.85C150.411 225.739 150.659 224.763 151.009 223.924C151.359 223.084 151.795 222.393 152.317 221.851C152.84 221.305 153.434 220.914 154.101 220.678C154.772 220.443 155.496 220.377 156.274 220.478C157.089 220.584 157.791 220.839 158.378 221.243C158.97 221.646 159.424 222.152 159.74 222.761C160.057 223.365 160.216 224.022 160.218 224.731L157.905 224.43C157.851 223.916 157.66 223.487 157.331 223.143C157.007 222.796 156.566 222.585 156.008 222.513C155.108 222.395 154.364 222.696 153.776 223.414C153.193 224.133 152.81 225.175 152.627 226.539L152.716 226.551C152.972 226.206 153.282 225.922 153.646 225.699C154.01 225.475 154.409 225.319 154.842 225.229C155.279 225.136 155.731 225.119 156.195 225.18C156.956 225.279 157.615 225.55 158.172 225.992C158.733 226.435 159.149 226.998 159.421 227.683C159.693 228.363 159.774 229.113 159.663 229.932C159.555 230.786 159.261 231.528 158.779 232.157C158.298 232.781 157.682 233.243 156.929 233.54C156.177 233.837 155.335 233.923 154.401 233.797ZM154.637 231.894C155.097 231.954 155.524 231.895 155.916 231.719C156.309 231.542 156.636 231.278 156.897 230.925C157.157 230.572 157.317 230.159 157.374 229.685C157.439 229.221 157.392 228.787 157.234 228.384C157.081 227.981 156.838 227.647 156.508 227.38C156.177 227.114 155.782 226.95 155.321 226.89C154.979 226.846 154.651 226.87 154.339 226.962C154.026 227.054 153.744 227.203 153.494 227.406C153.245 227.606 153.037 227.849 152.87 228.137C152.709 228.421 152.603 228.734 152.554 229.076C152.5 229.528 152.551 229.958 152.709 230.366C152.866 230.773 153.112 231.115 153.445 231.39C153.779 231.666 154.176 231.833 154.637 231.894Z" fill="#212121"/>
<path d="M53.6434 257.707L51.9505 270.688L49.599 270.381L50.9934 259.688L50.9174 259.678L47.6283 261.222L47.9094 259.067L51.4059 257.415L53.6434 257.707Z" fill="#212121"/>
<path d="M94.6706 274.999L94.8922 273.301L99.9749 269.47C100.463 269.091 100.872 268.752 101.204 268.451C101.535 268.15 101.793 267.851 101.978 267.553C102.163 267.255 102.279 266.926 102.326 266.567C102.38 266.157 102.332 265.794 102.184 265.478C102.037 265.158 101.811 264.897 101.507 264.694C101.202 264.491 100.843 264.362 100.429 264.308C100.002 264.253 99.6166 264.293 99.2723 264.428C98.9286 264.56 98.647 264.774 98.4277 265.072C98.2125 265.371 98.076 265.742 98.0182 266.186L95.7807 265.894C95.8882 265.07 96.1696 264.378 96.6251 263.819C97.0805 263.259 97.6596 262.856 98.3623 262.608C99.0692 262.36 99.8516 262.293 100.709 262.405C101.58 262.518 102.323 262.781 102.94 263.192C103.557 263.603 104.01 264.116 104.3 264.729C104.594 265.343 104.693 266.014 104.598 266.741C104.535 267.227 104.38 267.692 104.133 268.137C103.885 268.582 103.49 269.059 102.947 269.568C102.408 270.078 101.665 270.684 100.718 271.385L98.1837 273.369L98.1721 273.458L103.826 274.195L103.57 276.16L94.6706 274.999Z" fill="#212121"/>
<path d="M92.4366 324.872C91.3928 324.736 90.5315 324.355 89.8524 323.729C89.1781 323.1 88.7056 322.258 88.4348 321.205C88.1687 320.147 88.128 318.911 88.3126 317.495C88.5014 316.08 88.8592 314.902 89.3859 313.961C89.9174 313.016 90.5891 312.33 91.4012 311.903C92.2174 311.476 93.1453 311.331 94.1848 311.467C95.2243 311.602 96.0838 311.981 96.7634 312.602C97.443 313.224 97.9164 314.059 98.1836 315.108C98.4549 316.158 98.4986 317.388 98.3145 318.799C98.1294 320.219 97.7705 321.406 97.2379 322.359C96.7101 323.309 96.0378 323.999 95.221 324.43C94.4084 324.861 93.4803 325.008 92.4366 324.872ZM92.6953 322.888C93.5066 322.994 94.1988 322.678 94.772 321.941C95.35 321.2 95.7407 320.049 95.944 318.49C96.0784 317.459 96.0837 316.579 95.9596 315.849C95.8356 315.12 95.6002 314.552 95.2536 314.146C94.9074 313.735 94.466 313.495 93.9294 313.425C93.1223 313.32 92.4319 313.638 91.8581 314.38C91.2849 315.117 90.8954 316.259 90.6895 317.805C90.5502 318.84 90.5403 319.724 90.6595 320.457C90.783 321.191 91.0178 321.763 91.3639 322.173C91.7106 322.579 92.1544 322.818 92.6953 322.888Z" fill="#212121"/>
<path d="M147.306 282.784C146.393 282.665 145.603 282.403 144.933 281.998C144.269 281.593 143.768 281.085 143.43 280.474C143.093 279.863 142.96 279.19 143.03 278.456L145.413 278.766C145.388 279.12 145.465 279.441 145.642 279.731C145.819 280.016 146.074 280.254 146.406 280.443C146.738 280.632 147.122 280.755 147.557 280.812C148.022 280.873 148.444 280.846 148.824 280.733C149.205 280.615 149.516 280.423 149.757 280.158C149.997 279.893 150.141 279.57 150.186 279.189C150.241 278.797 150.185 278.437 150.017 278.11C149.849 277.783 149.58 277.509 149.209 277.289C148.842 277.069 148.384 276.924 147.835 276.852L146.688 276.702L146.924 274.889L148.071 275.039C148.523 275.098 148.929 275.071 149.287 274.959C149.65 274.847 149.947 274.663 150.178 274.405C150.41 274.143 150.548 273.824 150.593 273.447C150.645 273.08 150.604 272.75 150.471 272.458C150.342 272.162 150.135 271.918 149.851 271.726C149.57 271.535 149.228 271.412 148.822 271.36C148.425 271.308 148.048 271.332 147.691 271.431C147.334 271.531 147.035 271.7 146.793 271.939C146.552 272.174 146.401 272.473 146.341 272.835L144.078 272.539C144.19 271.815 144.482 271.204 144.955 270.707C145.433 270.206 146.03 269.846 146.747 269.626C147.464 269.401 148.242 269.344 149.083 269.453C149.95 269.566 150.681 269.827 151.276 270.236C151.877 270.641 152.317 271.138 152.596 271.729C152.876 272.32 152.973 272.945 152.887 273.604C152.796 274.336 152.5 274.92 152.001 275.358C151.505 275.796 150.897 276.046 150.175 276.106L150.162 276.208C151.058 276.454 151.714 276.883 152.128 277.496C152.547 278.105 152.702 278.814 152.591 279.625C152.497 280.352 152.205 280.976 151.716 281.496C151.231 282.013 150.607 282.387 149.842 282.619C149.081 282.85 148.236 282.906 147.306 282.784Z" fill="#212121"/>
<path d="M222.03 133.864L219.66 133.555C219.643 133.157 219.563 132.796 219.42 132.473C219.278 132.145 219.086 131.857 218.843 131.611C218.6 131.364 218.312 131.166 217.98 131.015C217.652 130.86 217.289 130.757 216.892 130.705C216.186 130.613 215.538 130.709 214.946 130.993C214.356 131.273 213.862 131.733 213.464 132.373C213.068 133.009 212.806 133.815 212.678 134.791C212.549 135.784 212.594 136.64 212.814 137.361C213.038 138.078 213.398 138.645 213.894 139.062C214.395 139.475 214.996 139.728 215.697 139.819C216.086 139.87 216.456 139.866 216.807 139.809C217.163 139.748 217.49 139.634 217.786 139.466C218.088 139.299 218.35 139.08 218.575 138.808C218.804 138.538 218.979 138.217 219.1 137.846L221.469 138.167C221.3 138.773 221.032 139.327 220.666 139.829C220.304 140.332 219.859 140.759 219.332 141.112C218.805 141.46 218.21 141.709 217.545 141.859C216.882 142.004 216.163 142.027 215.39 141.926C214.249 141.777 213.265 141.38 212.438 140.735C211.611 140.09 211.005 139.235 210.62 138.171C210.234 137.106 210.132 135.877 210.314 134.482C210.497 133.084 210.912 131.922 211.562 130.997C212.212 130.067 213.019 129.397 213.983 128.985C214.948 128.574 215.997 128.442 217.129 128.59C217.852 128.684 218.51 128.873 219.105 129.157C219.7 129.441 220.215 129.811 220.649 130.267C221.084 130.719 221.422 131.249 221.66 131.856C221.904 132.459 222.027 133.128 222.03 133.864Z" fill="#212121"/>
</svg>
