<svg width="258" height="71" viewBox="0 0 258 71" fill="none" xmlns="http://www.w3.org/2000/svg">
<g clip-path="url(#clip0_10309_230903)">
<path d="M255.907 58.062C255.864 60.8451 254.729 63.4998 252.746 65.4528C250.762 67.4058 248.09 68.5003 245.307 68.5H59.5249C53.6029 68.5 48.4549 63.654 48.5449 57.732C48.5875 54.9489 49.723 52.2942 51.7063 50.3412C53.6896 48.3882 56.3615 47.2937 59.1449 47.294H89.8449C90.7692 47.3124 91.6873 47.1393 92.5414 46.7856C93.3955 46.432 94.1672 45.9054 94.8079 45.239C96.7579 43.114 96.1009 40.948 94.9319 39.297C94.2847 38.4044 93.4333 37.6795 92.4489 37.1828C91.4644 36.6862 90.3755 36.4322 89.2729 36.442H19.6849C10.5789 36.442 2.69592 29.565 2.04392 20.483C1.86976 18.1208 2.18487 15.748 2.96957 13.5132C3.75426 11.2783 4.99165 9.22944 6.60435 7.49463C8.21704 5.75983 10.1704 4.37641 12.3421 3.43097C14.5138 2.48553 16.8573 1.99841 19.2259 2H171.379C180.938 2 189.056 9.573 189.101 19.133C189.114 21.4027 188.677 23.6525 187.817 25.7529C186.957 27.8533 185.69 29.7628 184.088 31.3715C182.487 32.9803 180.584 34.2564 178.488 35.1267C176.391 35.9969 174.144 36.4439 171.874 36.442H138.321C137.218 36.4322 136.129 36.6862 135.145 37.1828C134.161 37.6795 133.309 38.4044 132.662 39.297C131.493 40.948 130.836 43.114 132.786 45.239C133.427 45.9054 134.198 46.432 135.052 46.7856C135.907 47.1393 136.825 47.3124 137.749 47.294H244.927C250.85 47.294 255.998 52.139 255.907 58.062Z" fill="white"/>
<path d="M245.305 70.5H59.525C57.7819 70.491 56.0577 70.1377 54.4516 69.4604C52.8455 68.783 51.3891 67.7949 50.166 66.553C49.0018 65.3944 48.0817 64.0142 47.4599 62.494C46.8381 60.9738 46.5274 59.3444 46.546 57.702C46.5964 54.3937 47.9461 51.2379 50.3036 48.9163C52.6611 46.5947 55.8372 45.2936 59.146 45.294H89.846C90.4932 45.3121 91.1372 45.1964 91.7376 44.9543C92.3381 44.7123 92.8822 44.3489 93.336 43.887C94.036 43.121 94.52 42.176 93.301 40.452C92.8387 39.8201 92.2319 39.308 91.5314 38.9583C90.8309 38.6087 90.0568 38.4316 89.274 38.442H19.685C14.7711 38.4876 10.0206 36.679 6.38118 33.377C2.74179 30.0749 0.481054 25.5222 0.0499681 20.627C-0.14398 17.9908 0.208018 15.3429 1.08395 12.8489C1.95988 10.355 3.34091 8.06853 5.14069 6.13257C6.94047 4.19661 9.12029 2.6528 11.5439 1.5976C13.9674 0.5424 16.5826 -0.0014822 19.226 3.03371e-06H171.379C182.204 3.03371e-06 191.052 8.57899 191.101 19.123C191.115 21.656 190.627 24.1668 189.667 26.5108C188.707 28.8548 187.292 30.9859 185.505 32.7813C183.719 34.5768 181.594 36.0012 179.255 36.9727C176.915 37.9441 174.407 38.4435 171.874 38.442H138.321C137.538 38.4315 136.764 38.6085 136.064 38.9582C135.364 39.3079 134.757 39.8201 134.295 40.452C133.075 42.176 133.557 43.121 134.26 43.887C134.713 44.3492 135.257 44.7127 135.858 44.9548C136.458 45.197 137.102 45.3124 137.749 45.294H244.927C246.67 45.3028 248.395 45.6561 250.001 46.3334C251.607 47.0108 253.064 47.9989 254.287 49.241C255.451 50.3999 256.371 51.7801 256.992 53.3003C257.614 54.8204 257.925 56.4497 257.907 58.092C257.857 61.4003 256.507 64.5561 254.149 66.8777C251.792 69.1993 248.616 70.5004 245.307 70.5H245.305ZM59.147 49.294C56.8891 49.2953 54.7222 50.1839 53.1134 51.7681C51.5046 53.3524 50.5829 55.5054 50.547 57.763C50.5377 58.8753 50.7515 59.9781 51.1755 61.0064C51.5996 62.0347 52.2254 62.9676 53.016 63.75C53.8661 64.6151 54.8787 65.3037 55.9957 65.7764C57.1127 66.249 58.3121 66.4963 59.525 66.504H245.305C246.435 66.5092 247.554 66.2894 248.598 65.8574C249.642 65.4255 250.589 64.7899 251.385 63.988C252.968 62.4074 253.873 60.2719 253.908 58.035C253.916 56.9228 253.702 55.8202 253.277 54.7922C252.852 53.7643 252.226 52.8319 251.435 52.05C250.585 51.1849 249.572 50.4963 248.455 50.0237C247.337 49.5511 246.138 49.3038 244.925 49.296H137.749C136.548 49.3142 135.356 49.0837 134.248 48.619C133.14 48.1544 132.141 47.4656 131.312 46.596C129.065 44.147 128.962 41.067 131.03 38.146C131.862 36.9921 132.958 36.054 134.226 35.4103C135.494 34.7666 136.899 34.436 138.321 34.446H171.874C173.88 34.4477 175.867 34.0526 177.72 33.2835C179.573 32.5143 181.256 31.3862 182.671 29.9642C184.086 28.5421 185.206 26.8542 185.966 24.9976C186.727 23.1409 187.112 21.1523 187.101 19.146C187.005 15.0593 185.3 11.1757 182.355 8.33991C179.411 5.5041 175.466 3.94546 171.379 4.00299H19.226C17.1319 4.00074 15.06 4.43073 13.1398 5.26606C11.2196 6.10138 9.49249 7.3241 8.06655 8.85761C6.64062 10.3911 5.54656 12.2024 4.85284 14.1782C4.15913 16.1539 3.8807 18.2517 4.03497 20.34C4.39137 24.2274 6.19976 27.8375 9.09959 30.4508C11.9994 33.0641 15.7776 34.4885 19.681 34.44H89.272C90.6944 34.4299 92.0985 34.7605 93.367 35.4042C94.6354 36.048 95.7313 36.986 96.563 38.14C98.631 41.061 98.528 44.14 96.281 46.59C95.4523 47.4598 94.4527 48.1486 93.3449 48.6133C92.2371 49.0779 91.0451 49.3083 89.844 49.29L59.147 49.294Z" fill="#212121"/>
</g>
<defs>
<clipPath id="clip0_10309_230903">
<rect width="257.908" height="70.5" fill="white"/>
</clipPath>
</defs>
</svg>
