<svg width="266" height="71" viewBox="0 0 266 71" fill="none" xmlns="http://www.w3.org/2000/svg">
<g clip-path="url(#clip0_10309_230904)">
<path d="M88.68 12.438C88.7226 9.65486 89.8581 7.00016 91.8414 5.04718C93.8247 3.0942 96.4966 1.99967 99.28 2H206.327C212.25 2 217.398 6.84601 217.307 12.768C217.264 15.5511 216.129 18.2058 214.146 20.1588C212.162 22.1118 209.49 23.2063 206.707 23.206H176.007C175.083 23.1875 174.164 23.3605 173.31 23.7142C172.456 24.0678 171.684 24.5945 171.043 25.261C169.093 27.386 169.751 29.552 170.92 31.203C171.567 32.0955 172.419 32.8202 173.403 33.3167C174.388 33.8132 175.477 34.067 176.579 34.057H246.17C255.276 34.057 263.158 40.934 263.81 50.017C263.984 52.3792 263.669 54.7518 262.885 56.9867C262.1 59.2215 260.863 61.2705 259.25 63.0053C257.638 64.7401 255.684 66.1235 253.513 67.069C251.341 68.0144 248.998 68.5016 246.629 68.5H19.722C10.162 68.5 2.04404 60.927 1.99904 51.367C1.98652 49.0973 2.42295 46.8475 3.28322 44.7471C4.1435 42.6467 5.41064 40.7372 7.01172 39.1284C8.6128 37.5196 10.5162 36.2433 12.6124 35.373C14.7087 34.5026 16.9563 34.0554 19.226 34.057H127.526C128.629 34.0671 129.717 33.8133 130.702 33.3168C131.686 32.8203 132.538 32.0956 133.185 31.203C134.354 29.552 135.012 27.386 133.062 25.261C132.421 24.5945 131.649 24.0678 130.795 23.7142C129.941 23.3605 129.022 23.1875 128.098 23.206H99.66C93.737 23.206 88.589 18.361 88.68 12.438Z" fill="white"/>
<path d="M246.627 70.5H19.722C8.89604 70.5 0.0490428 61.921 4.28055e-05 51.377C-0.0138004 48.844 0.473369 46.3331 1.43351 43.9891C2.39366 41.645 3.80784 39.5139 5.59468 37.7184C7.38151 35.923 9.50574 34.4985 11.8452 33.5271C14.1846 32.5557 16.693 32.0564 19.2261 32.058H127.526C128.309 32.0682 129.083 31.891 129.784 31.5411C130.485 31.1913 131.092 30.679 131.554 30.047C132.773 28.324 132.291 27.379 131.588 26.613C131.135 26.1507 130.591 25.7871 129.99 25.545C129.389 25.3029 128.745 25.1875 128.098 25.206H99.66C97.9168 25.1972 96.1925 24.8439 94.5862 24.1666C92.9799 23.4892 91.5233 22.5011 90.3001 21.259C89.1363 20.1001 88.2164 18.7199 87.5947 17.1997C86.9729 15.6796 86.6619 14.0503 86.68 12.408C86.7305 9.09968 88.0802 5.94391 90.4377 3.62231C92.7952 1.30072 95.9713 -0.000384079 99.28 8.50468e-08H206.327C208.07 0.00886062 209.794 0.362129 211.4 1.03949C213.007 1.71685 214.463 2.70497 215.686 3.94702C216.85 5.10585 217.77 6.48601 218.392 8.00616C219.014 9.52632 219.325 11.1556 219.307 12.798C219.257 16.1063 217.907 19.2621 215.549 21.5837C213.192 23.9053 210.016 25.2064 206.707 25.206H176.007C175.36 25.188 174.716 25.3037 174.115 25.5458C173.514 25.7879 172.97 26.1511 172.516 26.613C171.816 27.379 171.332 28.324 172.552 30.048C173.015 30.6797 173.621 31.1917 174.322 31.5414C175.022 31.891 175.796 32.0681 176.579 32.058H246.17C251.084 32.0124 255.834 33.821 259.474 37.123C263.113 40.4251 265.374 44.9778 265.805 49.873C265.999 52.5092 265.647 55.1571 264.771 57.6511C263.895 60.145 262.514 62.4315 260.714 64.3674C258.915 66.3034 256.735 67.8472 254.311 68.9024C251.888 69.9576 249.272 70.5015 246.629 70.5H246.627ZM19.227 36.058C17.2208 36.0561 15.2339 36.4511 13.381 37.2203C11.528 37.9894 9.84546 39.1175 8.43025 40.5396C7.01504 41.9617 5.89511 43.6497 5.13496 45.5063C4.37481 47.363 3.98944 49.3517 4.00105 51.358C4.0966 55.4448 5.80202 59.3285 8.7463 62.1644C11.6906 65.0002 15.6356 66.5588 19.723 66.501H246.627C248.721 66.5027 250.793 66.0723 252.713 65.2365C254.632 64.4007 256.359 63.1777 257.785 61.6439C259.21 60.1101 260.304 58.2986 260.997 56.3227C261.69 54.3468 261.968 52.2492 261.813 50.161C261.457 46.2737 259.649 42.6633 256.749 40.05C253.85 37.4366 250.071 36.0123 246.168 36.061H176.577C175.155 36.0707 173.751 35.7399 172.482 35.0963C171.214 34.4526 170.118 33.5147 169.286 32.361C167.217 29.44 167.32 26.361 169.568 23.91C170.397 23.0404 171.396 22.3516 172.504 21.887C173.612 21.4223 174.804 21.1918 176.005 21.21H206.705C207.835 21.2158 208.954 20.9962 209.998 20.5642C211.042 20.1322 211.99 19.4964 212.785 18.694C214.368 17.1133 215.273 14.978 215.308 12.741C215.316 11.6293 215.102 10.5271 214.678 9.49951C214.253 8.47194 213.628 7.53978 212.837 6.758C211.987 5.8929 210.974 5.2043 209.857 4.73169C208.74 4.25908 207.54 4.0118 206.327 4.00403H99.2811C98.1516 3.99855 97.0324 4.21821 95.9888 4.65021C94.9452 5.0822 93.9982 5.71786 93.203 6.52002C91.6192 8.10028 90.7141 10.2359 90.68 12.473C90.6712 13.5847 90.8853 14.6869 91.3095 15.7145C91.7338 16.7421 92.3596 17.6743 93.15 18.456C94.0004 19.3211 95.0132 20.0097 96.1304 20.4823C97.2475 20.9549 98.4471 21.2022 99.66 21.21H128.103C129.304 21.1917 130.496 21.4221 131.604 21.8868C132.712 22.3514 133.711 23.0403 134.54 23.91C136.788 26.359 136.891 29.44 134.823 32.36C133.991 33.5138 132.895 34.4518 131.626 35.0955C130.358 35.7391 128.954 36.0699 127.531 36.06L19.227 36.058Z" fill="#212121"/>
</g>
<defs>
<clipPath id="clip0_10309_230904">
<rect width="265.853" height="70.5" fill="white"/>
</clipPath>
</defs>
</svg>
