<svg width="203" height="166" viewBox="0 0 203 166" fill="none" xmlns="http://www.w3.org/2000/svg">
<rect x="1.68325" y="-1.27794" width="22.9361" height="121.419" rx="5.5" transform="matrix(0.131919 -0.99126 0.99025 0.139299 76.6642 39.9651)" fill="white"/>
<rect x="1.68325" y="-1.27794" width="22.9361" height="121.419" rx="5.5" transform="matrix(0.131919 -0.99126 0.99025 0.139299 76.6642 39.9651)" stroke="black" stroke-width="3"/>
<path d="M85.8432 8.78925L35.0817 2.73821C26.9788 1.77231 19.5903 7.46098 18.4526 15.5415L5.9982 104L3.09566 124.615C1.93897 132.831 7.67102 140.425 15.8889 141.565L173.269 163.388C181.619 164.546 189.283 158.597 190.233 150.221L191.45 139.5L192.3 132L200.345 61.0913C201.265 52.9832 195.534 45.6271 187.447 44.5354L111.968 34.3457C105.938 33.5316 100.997 29.155 99.4609 23.2669L98.5819 19.8975C97.0245 13.9272 91.9699 9.51959 85.8432 8.78925Z" fill="#E50C54"/>
<path d="M5.14736 111.5L191.45 139.5M5.9982 104L3.09566 124.615C1.93897 132.831 7.67102 140.425 15.8889 141.565L173.269 163.388C181.619 164.546 189.283 158.597 190.233 150.221L192.3 132L200.345 61.0913C201.265 52.9831 195.534 45.6271 187.447 44.5354L111.968 34.3457C105.938 33.5316 100.997 29.155 99.4609 23.2669L98.582 19.8975C97.0245 13.9272 91.9699 9.51959 85.8432 8.78925L35.0817 2.73821C26.9788 1.77231 19.5903 7.46098 18.4526 15.5415L5.9982 104Z" stroke="black" stroke-width="4"/>
</svg>
