<svg width="289" height="259" viewBox="0 0 289 259" fill="none" xmlns="http://www.w3.org/2000/svg">
<rect x="2.56343" y="82.5423" width="233.843" height="185" rx="13" transform="rotate(-20 2.56343 82.5423)" fill="#45B0F2" stroke="#212121" stroke-width="4"/>
<circle cx="121.756" cy="136.466" r="77.7809" transform="rotate(-20 121.756 136.466)" fill="white" stroke="#212121" stroke-width="3"/>
<path d="M192.357 114.159L207.333 39.4055L211.929 39.6158L197.226 116.154L177.066 148.727L172.378 145.16L192.357 114.159Z" fill="#296A91" stroke="#212121" stroke-width="2" stroke-linecap="round" stroke-linejoin="round"/>
<path d="M170.17 142.197L155.147 161.978L167.91 170.138L181.693 150.056L170.17 142.197Z" fill="#378DC2" stroke="#212121" stroke-width="2" stroke-linecap="round" stroke-linejoin="round"/>
<path d="M218.608 25.8856L206.906 23.7421L203.312 39.7393L215.015 41.8828L218.608 25.8856Z" fill="#296A91" stroke="#212121" stroke-width="2" stroke-linecap="round" stroke-linejoin="round"/>
<circle cx="122.663" cy="136.889" r="28.7303" transform="rotate(-20 122.663 136.889)" fill="#8FD0F7" stroke="#212121" stroke-width="2"/>
<circle cx="122.664" cy="136.889" r="23.7753" transform="rotate(-20 122.664 136.889)" fill="#B5DFFA" stroke="#212121" stroke-width="2"/>
<path d="M117.994 97.1573C131.268 95.3391 145.21 101.564 153.559 112.085" stroke="#212121" stroke-width="1.5" stroke-linecap="round" stroke-linejoin="round"/>
<path d="M117.78 89.3257C133.534 88.1115 148.806 93.8523 159.454 106.549" stroke="#212121" stroke-width="1.5" stroke-linecap="round" stroke-linejoin="round"/>
<path d="M117.899 81.3729C130.962 80.0083 153.854 85.9888 165.138 101.468" stroke="#212121" stroke-width="1.5" stroke-linecap="round" stroke-linejoin="round"/>
<path d="M118.019 73.42C131.958 71.3597 156.634 77.0675 171.154 96.2646" stroke="#212121" stroke-width="1.5" stroke-linecap="round" stroke-linejoin="round"/>
<path d="M118.046 66.2535C131.985 64.1932 162.317 71.9858 176.837 91.183" stroke="#212121" stroke-width="1.5" stroke-linecap="round" stroke-linejoin="round"/>
<path d="M51.8896 83.1763C44.7256 91.4336 37.685 108.309 36.4781 117.411" stroke="#212121" stroke-width="2" stroke-linecap="round" stroke-linejoin="round"/>
<path d="M52.3096 69.8409C38.5854 83.8757 28.1297 106.89 26.8666 130.325" stroke="#212121" stroke-width="2" stroke-linecap="round" stroke-linejoin="round"/>
<path d="M196.341 190.299C203.505 182.042 210.546 165.166 211.752 156.064" stroke="#212121" stroke-width="2" stroke-linecap="round" stroke-linejoin="round"/>
<path d="M195.922 203.634C209.646 189.599 220.102 166.585 221.365 143.15" stroke="#212121" stroke-width="2" stroke-linecap="round" stroke-linejoin="round"/>
<path d="M126.425 176.198C113.151 178.016 99.2089 171.791 90.8599 161.271" stroke="#212121" stroke-width="1.5" stroke-linecap="round" stroke-linejoin="round"/>
<path d="M126.639 184.03C110.885 185.244 95.6126 179.503 84.9649 166.806" stroke="#212121" stroke-width="1.5" stroke-linecap="round" stroke-linejoin="round"/>
<path d="M126.521 191.982C113.458 193.347 90.5656 187.367 79.282 171.888" stroke="#212121" stroke-width="1.5" stroke-linecap="round" stroke-linejoin="round"/>
<path d="M126.401 199.935C112.462 201.996 87.7857 196.288 73.2656 177.091" stroke="#212121" stroke-width="1.5" stroke-linecap="round" stroke-linejoin="round"/>
<path d="M126.374 207.102C112.435 209.162 82.1032 201.37 67.583 182.172" stroke="#212121" stroke-width="1.5" stroke-linecap="round" stroke-linejoin="round"/>
<circle cx="122.452" cy="137.343" r="3.64326" transform="rotate(-20 122.452 137.343)" stroke="#212121" stroke-width="0.5"/>
<circle cx="122.452" cy="137.343" r="1.97753" transform="rotate(-20 122.452 137.343)" fill="#212121" stroke="#212121"/>
<circle cx="205.464" cy="61.1778" r="12.0955" transform="rotate(-20 205.464 61.1778)" fill="#8FD0F7" stroke="#212121" stroke-width="2"/>
<circle cx="205.464" cy="61.1779" r="1.26966" transform="rotate(-20 205.464 61.1779)" fill="white" stroke="#212121"/>
<path d="M244.038 128.871L260.259 173.437" stroke="#212121" stroke-width="4" stroke-linecap="round"/>
<rect x="247.706" y="156.538" width="12.0337" height="0.707865" rx="0.353933" transform="rotate(-20 247.706 156.538)" fill="#212121" stroke="#212121" stroke-width="0.707865"/>
</svg>
