<svg width="430" height="587" viewBox="0 0 430 587" fill="none" xmlns="http://www.w3.org/2000/svg">
<g clip-path="url(#clip0_488_7032)">
<path d="M294.149 413.988C294.149 413.988 415.737 355.08 426.296 334.556C436.856 314.031 399.433 279.204 387.52 281.365C375.607 283.525 319.981 326.075 319.981 326.075L294.149 413.988Z" fill="#F5D106" stroke="#212121" stroke-width="4" stroke-linejoin="round"/>
<path d="M135.85 326.609C135.85 326.609 14.263 385.52 3.70345 406.045C-6.85609 426.569 30.5666 461.397 42.4797 459.236C54.3927 457.074 110.019 414.525 110.019 414.525L135.85 326.609Z" fill="#F5D106" stroke="#212121" stroke-width="4" stroke-linejoin="round"/>
<path d="M212.797 465.583H105.782V473.754L116.596 564.574C118.004 576.398 126.364 585.174 136.221 585.174H177.825C185.831 585.174 193.052 579.338 196.13 570.379L209.663 530.992C210.823 527.614 214.771 527.614 215.932 530.992L229.464 570.377C232.542 579.335 239.763 585.171 247.77 585.171H289.373C299.229 585.171 307.59 576.395 308.998 564.571L319.812 473.754V465.583H212.797Z" fill="#F5D106" stroke="#212121" stroke-width="4" stroke-linejoin="round"/>
<path d="M324.531 444.715C307.197 448.822 272.591 454.436 212.792 454.436C152.951 454.436 118.361 448.813 101.062 444.706C101.088 379.767 110.911 306.307 110.911 306.307H314.682C314.682 306.307 324.505 379.776 324.531 444.715Z" fill="#F5D106" stroke="#212121" stroke-width="4" stroke-linejoin="round"/>
<path d="M212.794 421.532C179.06 421.532 155.71 418.809 140.615 416.008C141.459 379.84 144.304 343.382 146.291 321.383H279.301C281.288 343.395 284.133 379.869 284.978 416.011C269.876 418.811 246.519 421.532 212.794 421.532Z" fill="#CCA41E" stroke="#212121" stroke-width="4" stroke-linejoin="round"/>
<path d="M324.531 444.715C324.54 450.838 324.453 456.892 324.262 462.804C324.062 469.052 319.784 474.195 314.169 474.982C280.578 479.65 246.714 482.074 212.801 482.237C178.885 482.074 145.018 479.65 111.424 474.982C105.808 474.195 101.531 469.052 101.332 462.804C101.14 456.892 101.058 450.838 101.062 444.706C118.361 448.813 152.951 454.436 212.792 454.436C272.591 454.436 307.194 448.822 324.531 444.715Z" fill="#CCA41E" stroke="#212121" stroke-width="4" stroke-linejoin="round"/>
<path d="M321.635 309.982H103.957C103.957 309.982 95.4929 314.781 102.078 324.636C108.663 334.491 120.356 337.494 148.183 346.006C176.009 354.519 212.797 385.274 212.797 385.274C212.797 385.274 249.594 354.518 277.411 346.006C305.229 337.493 316.932 334.49 323.516 324.635C330.101 314.78 321.635 309.982 321.635 309.982Z" fill="#FFEBA8" stroke="#212121" stroke-width="4" stroke-linejoin="round"/>
<path d="M73.0713 139.473L96.0685 1.83008L198.769 99.8702L73.0713 139.473Z" fill="#F5D106" stroke="#212121" stroke-width="4" stroke-linejoin="round"/>
<path d="M109.403 41.8789L160.921 91.0586L97.8662 110.924L109.403 41.8789Z" fill="#FFE17C" stroke="#212121" stroke-width="4" stroke-linejoin="round"/>
<path d="M352.525 139.473L329.523 1.83008L226.822 99.8702L352.525 139.473Z" fill="#F5D106" stroke="#212121" stroke-width="4" stroke-linejoin="round"/>
<path d="M264.672 91.0635L316.19 41.8838L327.725 110.929L264.672 91.0635Z" fill="#FFE17C" stroke="#212121" stroke-width="4" stroke-linejoin="round"/>
<path d="M115.438 309.984H310.155C322.511 309.984 334.361 305.07 343.098 296.322C351.836 287.575 356.744 275.711 356.744 263.34V113.478C356.74 108.231 354.925 103.146 351.606 99.0845C348.288 95.0227 343.67 92.2333 338.534 91.1881C255.567 74.2068 170.026 74.2068 87.0591 91.1881C81.923 92.2333 77.3051 95.0227 73.9868 99.0845C70.6686 103.146 68.8536 108.231 68.8491 113.478V263.34C68.8491 269.466 70.0542 275.531 72.3955 281.19C74.7368 286.849 78.1686 291.991 82.4949 296.322C86.8211 300.654 91.957 304.089 97.6095 306.433C103.262 308.777 109.32 309.984 115.438 309.984Z" fill="#F5D106" stroke="#212121" stroke-width="4" stroke-linejoin="round"/>
<path d="M115.439 283.619C110.067 283.619 104.916 281.483 101.118 277.681C97.3198 273.878 95.186 268.721 95.186 263.343V139.194C95.1898 136.859 96.0105 134.599 97.5057 132.807C99.0009 131.015 101.076 129.804 103.37 129.385C175.707 115.985 249.886 115.985 322.223 129.385C324.518 129.804 326.593 131.015 328.088 132.807C329.583 134.599 330.404 136.859 330.408 139.194V263.34C330.408 268.718 328.274 273.875 324.476 277.678C320.678 281.48 315.526 283.617 310.155 283.617L115.439 283.619Z" fill="#212121"/>
<path d="M234.903 240.866C234.507 240.759 234.086 240.794 233.714 240.965C233.341 241.136 233.04 241.432 232.862 241.802C232.211 243.4 231.012 244.713 229.48 245.506H229.474C227.722 246.422 225.765 246.871 223.789 246.811C216.433 246.811 214.493 241.986 214.409 241.762C214.392 241.709 214.342 241.671 214.309 241.617C214.265 241.534 214.214 241.455 214.158 241.38C214.089 241.315 214.017 241.254 213.941 241.197C213.857 241.145 213.79 241.092 213.707 241.039C213.604 240.995 213.497 240.96 213.389 240.933C213.33 240.901 213.269 240.875 213.206 240.855H213.105C212.994 240.843 212.883 240.839 212.771 240.841H212.764C212.652 240.837 212.539 240.845 212.429 240.867H212.329C212.266 240.888 212.204 240.915 212.146 240.946C212.044 240.98 211.943 241.02 211.845 241.065C211.761 241.114 211.683 241.171 211.611 241.236C211.537 241.289 211.47 241.351 211.41 241.419C211.354 241.499 211.304 241.583 211.259 241.67C211.243 241.723 211.193 241.761 211.176 241.814C211.109 242.012 209.504 246.809 202.096 246.811C200.03 246.869 197.985 246.388 196.161 245.414C194.641 244.611 193.429 243.327 192.715 241.762C192.53 241.396 192.224 241.106 191.848 240.942C191.472 240.778 191.051 240.751 190.658 240.866C189.771 241.076 189.252 241.802 189.503 242.501C190.712 245.156 192.923 247.222 195.652 248.245C195.753 254.415 203.397 259.398 212.798 259.398C222.149 259.398 229.759 254.469 229.945 248.353H229.953C231.335 247.859 232.598 247.079 233.659 246.063C234.719 245.048 235.554 243.82 236.109 242.46C236.148 242.274 236.147 242.082 236.105 241.897C236.064 241.712 235.983 241.538 235.869 241.387C235.754 241.236 235.609 241.112 235.442 241.021C235.276 240.931 235.092 240.878 234.903 240.866Z" fill="#FFEBA8"/>
<path d="M125.342 192.629C125.342 192.629 135.486 176.747 154.664 176.747C173.842 176.747 183.987 192.629 183.987 192.629" stroke="#FFEBA8" stroke-width="4" stroke-linecap="round" stroke-linejoin="round"/>
<path d="M241.607 192.63C241.607 192.63 251.747 176.749 270.929 176.749C290.111 176.749 300.249 192.63 300.249 192.63" stroke="#FFEBA8" stroke-width="4" stroke-linecap="round" stroke-linejoin="round"/>
<path d="M370.164 143.953V232.358H387.45C387.45 232.358 400.544 217.052 400.544 186.647C400.544 156.242 388.627 143.953 388.627 143.953H370.164Z" fill="#F5D106" stroke="#212121" stroke-width="4" stroke-linejoin="round"/>
<path d="M370.168 143.953H356.744V232.357H370.168V143.953Z" fill="#CCA41E" stroke="#212121" stroke-width="4" stroke-linejoin="round"/>
<path d="M55.4254 143.953V232.358H38.1402C38.1402 232.358 25.0464 217.052 25.0464 186.647C25.0464 156.242 36.9622 143.953 36.9622 143.953H55.4254Z" fill="#F5D106" stroke="#212121" stroke-width="4" stroke-linejoin="round"/>
<path d="M55.4253 232.358H68.8491L68.8491 143.954H55.4253L55.4253 232.358Z" fill="#CCA41E" stroke="#212121" stroke-width="4" stroke-linejoin="round"/>
<path opacity="0.5" d="M338.196 151.377L317.715 144.199C317.715 144.199 290.845 133.753 212.796 133.753C134.746 133.753 107.877 144.199 107.877 144.199L87.3955 151.377H68.8491V224.885H103.782C114.25 224.885 132.607 242.504 160.921 232.604C196.334 220.222 212.791 221.24 212.797 221.24C212.802 221.24 229.258 220.222 264.671 232.604C292.986 242.504 311.343 224.885 321.811 224.885H356.744V151.377H338.196Z" fill="white" stroke="#212121" stroke-width="4" stroke-linecap="round" stroke-linejoin="round"/>
<path d="M338.196 151.377L317.715 144.199C317.715 144.199 290.845 133.753 212.796 133.753C134.746 133.753 107.877 144.199 107.877 144.199L87.3955 151.377H68.8491V224.885H103.782C114.25 224.885 132.607 242.504 160.921 232.604C196.334 220.222 212.791 221.24 212.797 221.24C212.802 221.24 229.258 220.222 264.671 232.604C292.986 242.504 311.343 224.885 321.811 224.885H356.744V151.377H338.196Z" stroke="#212121" stroke-width="4" stroke-linejoin="round"/>
</g>
<defs>
<clipPath id="clip0_488_7032">
<rect width="430" height="587" fill="white"/>
</clipPath>
</defs>
</svg>
