<svg width="296" height="532" viewBox="0 0 296 532" fill="none" xmlns="http://www.w3.org/2000/svg">
<g clip-path="url(#clip0_488_6996)">
<path d="M275.873 400.591L245.564 413.571C245.564 413.571 245.281 412.693 244.75 411.111C242.379 404.048 235.028 382.999 225.38 363.807C223.394 359.855 221.316 355.995 219.156 352.345C213.865 343.362 208.116 335.687 202.276 331.36C179.904 314.775 202.194 290.972 202.194 290.972C202.194 290.972 221.618 297.659 246.672 339.236C248.625 342.484 250.614 345.948 252.64 349.628C260.982 365.081 268.332 381.049 274.646 397.435C275.058 398.477 275.461 399.529 275.873 400.591Z" fill="#E50C54" stroke="#212121" stroke-width="4" stroke-linejoin="round"/>
<path d="M291.545 433.789L280.377 428.456C281.539 426.026 281.953 423.306 281.568 420.641C281.183 417.975 280.016 415.484 278.214 413.481C276.412 411.479 274.056 410.055 271.444 409.391C268.833 408.726 266.083 408.851 263.542 409.748C261.001 410.646 258.784 412.276 257.17 414.433C255.556 416.59 254.619 419.176 254.476 421.866C254.334 424.555 254.992 427.226 256.369 429.542C257.745 431.857 259.778 433.712 262.21 434.873L256.873 446.033C252.232 443.818 248.352 440.277 245.725 435.858C243.098 431.438 241.841 426.34 242.113 421.207C242.385 416.074 244.175 411.137 247.254 407.021C250.334 402.904 254.567 399.792 259.416 398.079C264.266 396.366 269.515 396.129 274.499 397.397C279.484 398.665 283.98 401.382 287.419 405.204C290.859 409.026 293.087 413.782 293.822 418.869C294.557 423.956 293.766 429.147 291.548 433.785L291.545 433.789Z" fill="#E50C54" stroke="#212121" stroke-width="4" stroke-linejoin="round"/>
<path d="M252.64 349.628C245.903 350.552 233.884 353.617 225.38 363.807C223.394 359.856 221.316 355.995 219.156 352.345C228.191 342.456 240.557 339.895 246.672 339.236C248.622 342.484 250.611 345.948 252.64 349.628Z" fill="#890732" stroke="#212121" stroke-width="4" stroke-linejoin="round"/>
<path d="M20.1289 400.591L50.4371 413.571C50.4371 413.571 50.7209 412.693 51.2518 411.111C53.6227 404.048 60.9731 382.999 70.6213 363.807C72.6076 359.855 74.6855 355.995 76.8458 352.345C82.1367 343.362 87.8853 335.687 93.7254 331.36C116.097 314.775 93.8078 290.972 93.8078 290.972C93.8078 290.972 74.3835 297.659 49.3295 339.236C47.3767 342.484 45.3873 345.948 43.3612 349.628C35.0198 365.081 27.6698 381.049 21.3555 397.435C20.9436 398.477 20.5408 399.529 20.1289 400.591Z" fill="#E50C54" stroke="#212121" stroke-width="4" stroke-linejoin="round"/>
<path d="M4.45589 433.789L15.6235 428.456C14.4619 426.026 14.0474 423.306 14.4325 420.641C14.8176 417.975 15.9849 415.484 17.787 413.481C19.589 411.479 21.9447 410.055 24.5563 409.391C27.1679 408.726 29.9179 408.851 32.4588 409.748C34.9996 410.646 37.217 412.276 38.8307 414.433C40.4444 416.59 41.3818 419.176 41.5244 421.866C41.667 424.555 41.0084 427.226 39.6319 429.542C38.2554 431.857 36.2227 433.712 33.7911 434.873L39.1277 446.033C43.7689 443.818 47.6484 440.277 50.2756 435.858C52.9028 431.438 54.1598 426.34 53.8876 421.207C53.6153 416.074 51.8261 411.137 48.7462 407.021C45.6663 402.904 41.4339 399.792 36.5844 398.079C31.7349 396.366 26.4861 396.129 21.5016 397.397C16.5171 398.665 12.0209 401.382 8.58148 405.204C5.14209 409.026 2.91402 413.782 2.17902 418.869C1.44402 423.956 2.2351 429.147 4.45222 433.785L4.45589 433.789Z" fill="#E50C54" stroke="#212121" stroke-width="4" stroke-linejoin="round"/>
<path d="M43.3613 349.628C50.0985 350.552 62.1175 353.617 70.6213 363.807C72.6077 359.856 74.6856 355.995 76.8459 352.345C67.8111 342.456 55.4443 339.895 49.3296 339.236C47.3798 342.484 45.3904 345.948 43.3613 349.628Z" fill="#890732" stroke="#212121" stroke-width="4" stroke-linejoin="round"/>
<path d="M148 463.116L147.927 463.738L145.044 488.108L140.998 522.303C140.742 524.47 139.7 526.467 138.068 527.917C136.437 529.367 134.329 530.169 132.146 530.17H90.2582C88.2214 530.169 86.2463 529.471 84.661 528.193C83.0758 526.915 81.9758 525.133 81.5438 523.144L74.0652 488.529L65.6528 449.596L147.735 463.07L148 463.116Z" fill="#E50C54" stroke="#212121" stroke-width="4" stroke-linejoin="round"/>
<path d="M230.357 449.596L214.457 523.144C214.027 525.134 212.927 526.917 211.341 528.195C209.756 529.473 207.78 530.17 205.743 530.17H163.855C161.672 530.167 159.565 529.366 157.934 527.916C156.303 526.466 155.26 524.469 155.003 522.303L150.728 486.169L148.174 464.607V464.598L148 463.116L230.357 449.596Z" fill="#E50C54" stroke="#212121" stroke-width="4" stroke-linejoin="round"/>
<path d="M147.735 463.07L147.927 463.738L145.044 488.108L143.817 488.529C143.817 488.529 133.547 481.512 106.827 481.512C80.1067 481.512 74.0652 488.529 74.0652 488.529L65.6528 449.596L147.735 463.07Z" fill="#B70A43" stroke="#212121" stroke-width="4" stroke-linejoin="round"/>
<path d="M148.234 463.07L148.042 463.738L150.925 488.108L152.152 488.529C152.152 488.529 162.422 481.512 189.142 481.512C215.862 481.512 221.904 488.529 221.904 488.529L230.316 449.596L148.234 463.07Z" fill="#B70A43" stroke="#212121" stroke-width="4" stroke-linejoin="round"/>
<path d="M230.358 449.593C230.358 449.593 189.157 463.112 148 463.112C106.844 463.112 65.6474 449.593 65.6474 449.593C64.4272 440.508 64.3896 430.068 65.1649 419.01C65.1649 419.01 88.6353 431.859 147.997 431.859C206.891 431.859 230.467 419.213 230.829 419.01C231.616 430.075 231.578 440.508 230.358 449.593Z" fill="#890732" stroke="#212121" stroke-width="4" stroke-linejoin="round"/>
<path d="M206.923 305.711H89.0811C90.747 300.35 91.7723 297.277 91.7723 297.277H204.236C204.236 297.277 205.267 300.349 206.923 305.711Z" fill="#890732" stroke="#212121" stroke-width="4" stroke-linejoin="round"/>
<path d="M230.833 419.014C230.467 419.216 206.896 431.858 148 431.858C88.6378 431.858 65.1675 419.014 65.1675 419.014C68.1333 376.825 82.935 325.569 89.0772 305.709H206.923C213.075 325.579 227.867 376.825 230.833 419.014Z" fill="#E50C54" stroke="#212121" stroke-width="4" stroke-linejoin="round"/>
<path d="M230.839 419.01H230.832" stroke="#212121" stroke-width="4" stroke-linejoin="round"/>
<path d="M273.061 95.3613H22.9428C13.263 95.3613 5.41602 103.203 5.41602 112.877V280.08C5.41602 289.753 13.263 297.595 22.9428 297.595H273.061C282.741 297.595 290.588 289.753 290.588 280.08V112.877C290.588 103.203 282.741 95.3613 273.061 95.3613Z" fill="#E50C54" stroke="#212121" stroke-width="4" stroke-linejoin="round"/>
<path d="M263.126 264.374V128.581C263.126 125.39 260.538 122.804 257.346 122.804L38.6579 122.804C35.4654 122.804 32.8773 125.39 32.8773 128.581V264.374C32.8773 267.564 35.4654 270.15 38.6579 270.15H257.346C260.538 270.15 263.126 267.564 263.126 264.374Z" fill="#212121"/>
<path d="M85.2215 203.234C98.7717 203.234 109.756 192.256 109.756 178.715C109.756 165.173 98.7717 154.196 85.2215 154.196C71.6712 154.196 60.6865 165.173 60.6865 178.715C60.6865 192.256 71.6712 203.234 85.2215 203.234Z" fill="#F59EBB"/>
<path d="M210.782 203.234C224.333 203.234 235.317 192.256 235.317 178.715C235.317 165.173 224.333 154.196 210.782 154.196C197.232 154.196 186.248 165.173 186.248 178.715C186.248 192.256 197.232 203.234 210.782 203.234Z" fill="#F59EBB"/>
<path d="M121.741 227.152H174.264C174.264 227.152 177.029 247.583 148.002 247.583C118.975 247.583 121.741 227.152 121.741 227.152Z" fill="#F59EBB"/>
<path d="M79.7961 38.6495C80.9184 31.8995 83.8445 25.5779 88.2652 20.3526C92.6858 15.1274 98.4368 11.1925 104.91 8.96392C119.118 4.1357 140.729 0.121629 171.234 2.60343C216.388 6.27811 239.43 26.4399 248.943 37.7128C252.656 42.1433 255.352 47.3342 256.84 52.9192C258.931 60.6619 261.783 74.5236 262.947 95.3121C262.947 95.3121 235.852 96.1116 195.026 94.883C154.2 93.6545 71.6245 86.8887 71.6245 86.8887L79.7961 38.6495Z" fill="#890732" stroke="#212121" stroke-width="4" stroke-linejoin="round"/>
<path d="M53.759 90.838C53.759 90.838 52.7668 64.2636 78.3937 26.6532C81.967 21.3912 86.8083 17.1127 92.4714 14.2122C104.785 7.93223 129.695 -0.535007 171.234 2.60636C171.234 2.60636 194.342 19.9543 195.023 94.886L53.759 90.838Z" fill="#F59EBB" stroke="#212121" stroke-width="4" stroke-linejoin="round"/>
<path d="M113.94 75.4175C178.73 75.4175 194.822 95.3076 194.822 95.3076C157.557 102.925 113.94 101.233 113.94 101.233C113.94 101.233 70.3227 102.925 33.0576 95.3076C33.0594 95.3113 49.1491 75.4175 113.94 75.4175Z" fill="#EF6D98" stroke="#212121" stroke-width="4" stroke-linejoin="round"/>
<path d="M90.648 46.279L91.5371 40.9745L114.277 31.6313L113.283 37.7345L97.791 43.5665L98.0321 43.25L97.8965 44.0035L97.7307 43.687L111.339 49.519L110.314 55.6221L90.648 46.279ZM135.435 23.6595L119.401 60.6102H113.87L129.904 23.6595H135.435ZM112.167 97.279L89.3972 106.622L90.422 100.519L105.868 94.687L105.642 95.0035L105.778 94.25L105.929 94.5665L92.3659 88.7345L93.3605 82.6313L113.057 91.9745L112.167 97.279Z" fill="#212121"/>
</g>
<defs>
<clipPath id="clip0_488_6996">
<rect width="296" height="532" fill="white"/>
</clipPath>
</defs>
</svg>
