<svg width="445" height="505" viewBox="0 0 445 505" fill="none" xmlns="http://www.w3.org/2000/svg">
<g clip-path="url(#clip0_488_7131)">
<path d="M302.63 406.841C302.63 406.841 414.708 380.39 442.842 257.882C443.24 256.124 443.2 254.295 442.724 252.556C442.249 250.816 441.353 249.221 440.116 247.91C438.879 246.598 437.338 245.612 435.63 245.037C433.922 244.461 432.098 244.315 430.32 244.611C403.644 249.044 349.943 260.322 328.378 281.863C294.7 315.508 302.63 406.841 302.63 406.841Z" fill="#6AC0F5" stroke="#212121" stroke-width="4" stroke-linejoin="round"/>
<path d="M142.371 406.841C142.371 406.841 30.2923 380.39 2.15864 257.88C1.76049 256.122 1.80091 254.293 2.27627 252.554C2.75163 250.814 3.64741 249.219 4.8846 247.908C6.12179 246.597 7.66237 245.61 9.37072 245.035C11.0791 244.459 12.9027 244.313 14.6809 244.609C41.3568 249.042 95.0574 260.32 116.623 281.861C150.3 315.508 142.371 406.841 142.371 406.841Z" fill="#6AC0F5" stroke="#212121" stroke-width="4" stroke-linejoin="round"/>
<path d="M148.376 462.559C135.158 452.077 122.897 440.017 114.402 426.74C103.899 410.33 97.7808 389.063 94.5349 367.333C94.4114 366.522 94.2989 365.722 94.1863 364.91C92.9463 355.972 92.173 346.99 91.786 338.266C91.5938 334.028 91.4932 329.846 91.4703 325.767C91.4254 317.731 91.6734 310.078 92.1236 303.056C93.0927 287.999 95.02 275.895 97.003 269.369C99.4261 261.356 106.739 255.878 115.122 252.17C113.24 260.672 89.2055 375.662 148.376 462.559Z" fill="#378DC2" stroke="#212121" stroke-width="4" stroke-linejoin="round"/>
<path d="M353.528 325.846C353.505 329.926 353.404 334.096 353.212 338.322C352.829 346.99 352.063 355.915 350.833 364.797C350.833 364.831 350.822 364.865 350.822 364.899C350.7 365.744 350.576 366.589 350.45 367.434C347.216 389.108 341.075 410.341 330.606 426.744C322.11 440.021 309.85 452.092 296.621 462.573C355.848 375.631 331.733 260.559 329.874 252.163C338.246 255.881 345.559 261.359 347.993 269.37C350.914 278.96 353.693 300.566 353.528 325.846Z" fill="#378DC2" stroke="#212121" stroke-width="4" stroke-linejoin="round"/>
<path d="M115.303 252.092C115.239 252.111 115.178 252.137 115.12 252.17C115.188 251.844 115.232 251.674 115.232 251.674L115.303 252.092Z" fill="#3BA9E0" stroke="#212121" stroke-width="4" stroke-linejoin="round"/>
<path d="M336.175 327.233C336.028 332.654 335.758 338.244 335.307 343.982C332.422 381.412 322.45 424.668 296.623 462.572L296.618 462.572L296.614 462.575L296.612 462.578L296.611 462.583C274.514 480.074 249.712 493.16 235.131 500.136C231.187 502.023 226.871 503.002 222.499 503.002C218.127 503.002 213.811 502.023 209.867 500.136C195.286 493.16 170.473 480.063 148.373 462.561C122.523 424.601 112.55 381.277 109.689 343.813C109.249 338.077 108.967 332.486 108.832 327.076C107.796 286.841 114.185 256.387 115.12 252.172C115.178 252.139 115.239 252.112 115.303 252.093C115.619 251.947 115.934 251.811 116.249 251.676C123.205 248.885 130.456 246.896 137.862 245.748H137.874C144.139 244.7 148.545 244.452 148.545 244.452H296.476C296.476 244.452 313.965 245.458 328.737 251.665C329.064 251.8 329.378 251.935 329.695 252.082C329.759 252.101 329.821 252.128 329.878 252.161C330.8 256.329 337.221 286.884 336.175 327.233Z" fill="#3BA9E0" stroke="#212121" stroke-width="4" stroke-linejoin="round"/>
<path d="M329.876 252.16C329.818 252.127 329.757 252.1 329.693 252.081L329.76 251.675C329.76 251.675 329.797 251.843 329.876 252.16Z" fill="#3BA9E0" stroke="#212121" stroke-width="4" stroke-linejoin="round"/>
<path d="M207.197 337.726C209.088 337.771 211.004 337.805 212.944 337.827V354.384C205.653 354.282 198.659 354.075 191.962 353.764C156.433 352.14 128.994 347.915 109.694 343.811C109.254 338.075 108.972 332.485 108.838 327.075C130.83 331.809 163.644 336.746 207.197 337.726Z" fill="#212121"/>
<path d="M336.175 327.233C336.028 332.654 335.758 338.244 335.307 343.982C314.911 348.299 285.467 352.717 246.884 354.05C240.021 354.298 232.866 354.434 225.417 354.457C227.011 351.883 229.551 350.039 232.491 349.32C235.431 348.601 238.536 349.065 241.137 350.613V337.669C243.075 337.624 244.991 337.568 246.884 337.5C286.008 336.137 315.757 331.606 336.175 327.233Z" fill="#212121"/>
<path d="M212.944 342.617H241.143" stroke="#212121" stroke-width="2" stroke-linejoin="round"/>
<path d="M212.944 349.71H241.143" stroke="#212121" stroke-width="2" stroke-linejoin="round"/>
<path d="M246.884 321.8V360.616C246.887 362.357 246.494 364.076 245.734 365.642C244.824 367.547 243.412 369.168 241.649 370.33C239.887 371.492 237.841 372.151 235.732 372.237C233.622 372.323 231.53 371.832 229.679 370.817C227.827 369.802 226.288 368.302 225.226 366.477C224.34 364.967 223.809 363.275 223.673 361.53C223.536 359.784 223.798 358.031 224.437 356.401C224.698 355.72 225.026 355.067 225.417 354.451C227.011 351.878 229.551 350.033 232.491 349.314C235.431 348.595 238.536 349.06 241.137 350.607V334.232H212.944V360.616C212.944 363.699 211.719 366.655 209.54 368.835C207.36 371.015 204.404 372.24 201.322 372.24C198.24 372.24 195.284 371.015 193.104 368.835C190.925 366.655 189.7 363.699 189.7 360.616C189.711 358.15 190.504 355.751 191.965 353.764C193.65 351.428 196.149 349.808 198.969 349.224C201.79 348.639 204.726 349.133 207.201 350.608V321.8H246.884Z" fill="#B5DFFA" stroke="#212121" stroke-width="3" stroke-linecap="round" stroke-linejoin="round"/>
<path d="M351.148 65.6062C339.251 53.6686 325.111 44.2014 309.543 37.7493C293.975 31.2972 277.284 27.9874 260.433 28.0104H184.571C150.545 28.0177 117.914 41.5403 93.8531 65.6051C69.7924 89.67 56.2717 122.307 56.2637 156.34C56.2637 227.228 151.641 284.685 222.5 284.685C293.359 284.685 388.741 227.228 388.741 156.34C388.763 139.484 385.454 122.791 379.002 107.219C372.55 91.6473 363.084 77.5052 351.148 65.6062Z" fill="#6AC0F5" stroke="#212121" stroke-width="4" stroke-linejoin="round"/>
<path d="M298.71 217.418C285.82 217.418 274.725 210.298 262.979 202.762C250.684 194.873 237.971 188.808 222.5 188.808C207.029 188.808 194.315 194.873 182.023 202.762C170.277 210.298 159.184 217.418 146.292 217.418C141.299 217.374 136.359 216.386 131.734 214.504C100.176 202.192 88.9775 175.477 88.9775 156.34C88.9858 130.985 99.0597 106.671 116.985 88.7427C134.91 70.8141 159.219 60.7385 184.569 60.7305H260.431C285.781 60.738 310.09 70.8135 328.016 88.7421C345.941 106.671 356.015 130.985 356.023 156.34C356.023 175.477 344.825 202.195 313.267 214.504C308.645 216.385 303.708 217.374 298.718 217.418H298.71Z" fill="#212121"/>
<path d="M138.416 130.554C138.416 130.554 158.473 133.42 165.35 144.311C165.35 144.311 144.72 146.599 138.416 156.348" stroke="#6AC0F5" stroke-width="4" stroke-miterlimit="10"/>
<path d="M306.585 130.554C306.585 130.554 286.527 133.42 279.65 144.311C279.65 144.311 300.281 146.599 306.585 156.348" stroke="#6AC0F5" stroke-width="4" stroke-miterlimit="10"/>
<path d="M392.59 105.831V199.573H410.937C410.937 199.573 424.834 183.343 424.834 151.103C424.834 118.862 412.187 105.831 412.187 105.831H392.59Z" fill="#45B0F2" stroke="#212121" stroke-width="4" stroke-linejoin="round"/>
<path d="M392.589 105.831H378.342V199.573H392.589V105.831Z" fill="#378DC2" stroke="#212121" stroke-width="4" stroke-linejoin="round"/>
<path d="M52.4103 105.831V199.573H34.0635C34.0635 199.573 20.166 183.343 20.166 151.103C20.166 118.862 32.8135 105.831 32.8135 105.831H52.4103Z" fill="#45B0F2" stroke="#212121" stroke-width="4" stroke-linejoin="round"/>
<path d="M52.4111 199.573H66.6582L66.6582 105.831H52.4111L52.4111 199.573Z" fill="#378DC2" stroke="#212121" stroke-width="4" stroke-linejoin="round"/>
<path d="M406.506 105.832H392.57C382.304 79.1039 364.184 56.1118 340.598 39.8839C317.012 23.6559 289.066 14.953 260.438 14.921H184.577C155.947 14.9443 127.996 23.6438 104.408 39.8729C80.8204 56.102 62.7028 79.0988 52.4432 105.832H38.5063C49.0516 75.479 68.7786 49.1597 94.9518 30.5245C121.125 11.8893 152.447 1.86176 184.575 1.83252H260.436C292.562 1.86998 323.881 11.9009 350.052 30.5354C376.224 49.1698 395.953 75.4849 406.505 105.834L406.506 105.832Z" fill="#B5DFFA" stroke="#212121" stroke-width="4" stroke-linejoin="round"/>
</g>
<defs>
<clipPath id="clip0_488_7131">
<rect width="445" height="505" fill="white"/>
</clipPath>
</defs>
</svg>
