<svg width="286" height="214" viewBox="0 0 286 214" fill="none" xmlns="http://www.w3.org/2000/svg">
<path d="M219.209 17.3027H69.1699V117.596H219.209V17.3027Z" fill="#212121" stroke="#212121" stroke-width="4" stroke-linejoin="round"/>
<path d="M207.673 2.05859H66.9902V102.287H207.673V2.05859Z" fill="white" stroke="#212121" stroke-width="4" stroke-linejoin="round"/>
<path d="M207.976 2.05859L219.208 17.3032H207.976V2.05859Z" fill="#212121" stroke="#212121" stroke-width="4" stroke-linejoin="round"/>
<path d="M68.8976 117.392L66.9902 102.287H68.8972L68.8976 117.392Z" fill="#212121" stroke="#212121" stroke-width="4" stroke-linejoin="round"/>
<path d="M91.5024 115.591H83.4375V137.427H91.5024V115.591Z" fill="#212121" stroke="#212121" stroke-width="4" stroke-linejoin="round"/>
<path d="M90.2992 114.388H82.2344V136.223H90.2992V114.388Z" fill="white" stroke="#212121" stroke-width="4" stroke-linejoin="round"/>
<path d="M90.2998 114.388L91.5035 115.591H90.2998V114.388Z" fill="#212121" stroke="#212121" stroke-width="4" stroke-linejoin="round"/>
<path d="M83.4381 137.427L82.2344 136.224H83.4381V137.427Z" fill="#212121" stroke="#212121" stroke-width="4" stroke-linejoin="round"/>
<path d="M203.698 115.591H195.633V137.427H203.698V115.591Z" fill="#212121" stroke="#212121" stroke-width="4" stroke-linejoin="round"/>
<path d="M202.495 114.388H194.43V136.223H202.495V114.388Z" fill="white" stroke="#212121" stroke-width="4" stroke-linejoin="round"/>
<path d="M202.494 114.388L203.698 115.591H202.494V114.388Z" fill="#212121" stroke="#212121" stroke-width="4" stroke-linejoin="round"/>
<path d="M195.633 137.427L194.43 136.224H195.633V137.427Z" fill="#212121" stroke="#212121" stroke-width="4" stroke-linejoin="round"/>
<path d="M283.624 140.021H10.1768V211.119H283.624V140.021Z" fill="#212121" stroke="#212121" stroke-width="4" stroke-linejoin="round"/>
<path d="M275.448 126.423H2V197.521H275.448V126.423Z" fill="#E50C54" stroke="#212121" stroke-width="4" stroke-linejoin="round"/>
<path d="M46.3334 147.358C43.7292 147.358 41.7924 146.528 40.5228 144.868C39.7579 143.875 39.3754 142.752 39.3754 141.499C39.3754 139.806 40.0101 138.398 41.2797 137.275C42.5655 136.152 44.2501 135.591 46.3334 135.591H59.517L58.2719 139.717H46.3822C45.3894 139.717 44.7302 140.083 44.4047 140.815C44.307 141.043 44.2582 141.271 44.2582 141.499C44.2582 142.199 44.6 142.712 45.2836 143.037C45.6091 143.184 45.9753 143.257 46.3822 143.257H53.0717C55.5619 143.257 57.4499 144.054 58.7357 145.649C59.5495 146.675 59.9564 147.839 59.9564 149.141C59.9564 150.833 59.3217 152.233 58.0521 153.34C56.7826 154.447 55.1225 155 53.0717 155H39.3754L40.6205 150.874H53.0228C54.032 150.874 54.6911 150.516 55.0004 149.8C55.098 149.588 55.1469 149.368 55.1469 149.141C55.1469 148.441 54.8213 147.928 54.1703 147.603C53.8285 147.44 53.446 147.358 53.0228 147.358H46.3334ZM69.4779 135.591H81.9291L80.684 139.717H70.0394C68.6397 139.717 67.5736 140.498 66.8412 142.061C66.3855 143.07 66.1576 144.193 66.1576 145.43C66.1576 147.35 66.6459 148.823 67.6225 149.849C68.2898 150.532 69.0954 150.874 70.0394 150.874H81.9291L80.684 155H69.4779C66.8249 155 64.7335 153.893 63.2035 151.68C61.9177 149.84 61.2748 147.66 61.2748 145.137C61.2748 142.467 61.9828 140.238 63.3988 138.447C64.9125 136.559 66.9389 135.607 69.4779 135.591ZM83.9555 136.348L88.5697 135.103V143.745H98.726V135.591H103.34V155H98.726V147.871H88.5697V155H83.9555V136.348ZM111.714 147.383V150.874H125.874L124.629 155H107.1V135.591H125.874L124.629 139.717H111.714V143.257H123.75V147.383H111.714ZM148.189 135.591H152.803V155H148.189V143.843L142.281 154.365H139.18L133.272 144.282V155H128.658V136.348L133.272 135.103L140.767 148.823L148.189 135.591ZM162.495 152.412L164.18 148.457H169.6L165.816 140.4L159.053 155H154.195L163.399 136.348L168.037 135.103L177.583 155H172.701L171.48 152.412H162.495ZM174.165 139.717V135.591H194.454L193.208 139.717H185.957V155H181.319V139.717H174.165ZM196.578 135.591H201.192V155H196.578V135.591ZM211.714 135.591H224.165L222.92 139.717H212.276C210.876 139.717 209.81 140.498 209.078 142.061C208.622 143.07 208.394 144.193 208.394 145.43C208.394 147.35 208.882 148.823 209.859 149.849C210.526 150.532 211.332 150.874 212.276 150.874H224.165L222.92 155H211.714C209.061 155 206.97 153.893 205.44 151.68C204.154 149.84 203.511 147.66 203.511 145.137C203.511 142.467 204.219 140.238 205.635 138.447C207.149 136.559 209.175 135.607 211.714 135.591ZM232.344 147.358C229.74 147.358 227.803 146.528 226.534 144.868C225.769 143.875 225.386 142.752 225.386 141.499C225.386 139.806 226.021 138.398 227.29 137.275C228.576 136.152 230.261 135.591 232.344 135.591H245.528L244.283 139.717H232.393C231.4 139.717 230.741 140.083 230.415 140.815C230.318 141.043 230.269 141.271 230.269 141.499C230.269 142.199 230.611 142.712 231.294 143.037C231.62 143.184 231.986 143.257 232.393 143.257H239.082C241.573 143.257 243.461 144.054 244.746 145.649C245.56 146.675 245.967 147.839 245.967 149.141C245.967 150.833 245.332 152.233 244.063 153.34C242.793 154.447 241.133 155 239.082 155H225.386L226.631 150.874H239.034C240.043 150.874 240.702 150.516 241.011 149.8C241.109 149.588 241.158 149.368 241.158 149.141C241.158 148.441 240.832 147.928 240.181 147.603C239.839 147.44 239.457 147.358 239.034 147.358H232.344ZM112.691 176.48H108.76C106.872 176.48 105.521 177.286 104.707 178.897C104.512 179.304 104.398 179.63 104.366 179.874H119.698L118.453 184H99.5805V179.874C99.5805 179.874 99.7432 179.443 100.069 178.58C101.176 176.041 102.771 174.259 104.854 173.233C106.042 172.664 107.328 172.379 108.711 172.379H112.642C113.602 172.379 114.253 172.013 114.595 171.28C114.709 171.036 114.766 170.784 114.766 170.523C114.766 169.807 114.432 169.286 113.765 168.961C113.423 168.798 113.049 168.717 112.642 168.717H99.9955L101.241 164.591H112.691C115.197 164.591 117.102 165.405 118.404 167.032C119.234 168.09 119.649 169.278 119.649 170.597C119.649 172.289 119.006 173.697 117.72 174.82C116.434 175.927 114.758 176.48 112.691 176.48ZM125.996 174.308C125.996 177.091 126.94 178.857 128.829 179.605C129.659 179.931 130.7 180.094 131.954 180.094C134.899 180.094 136.714 179.036 137.398 176.92C137.642 176.171 137.764 175.3 137.764 174.308C137.764 171.264 136.617 169.425 134.322 168.79C133.638 168.595 132.849 168.497 131.954 168.497C129.154 168.497 127.356 169.376 126.558 171.134C126.184 171.98 125.996 173.038 125.996 174.308ZM142.647 174.308C142.647 178.149 141.223 180.932 138.374 182.657C136.551 183.748 134.338 184.293 131.734 184.293C128.43 184.293 125.809 183.349 123.872 181.461C122.05 179.687 121.138 177.302 121.138 174.308C121.138 170.727 122.399 168.041 124.922 166.251C126.778 164.949 129.048 164.298 131.734 164.298C135.331 164.298 138.114 165.291 140.083 167.276C141.792 169.034 142.647 171.378 142.647 174.308ZM157.124 176.48H153.194C151.306 176.48 149.955 177.286 149.141 178.897C148.946 179.304 148.832 179.63 148.799 179.874H164.131L162.886 184H144.014V179.874C144.014 179.874 144.177 179.443 144.502 178.58C145.609 176.041 147.204 174.259 149.287 173.233C150.476 172.664 151.761 172.379 153.145 172.379H157.076C158.036 172.379 158.687 172.013 159.029 171.28C159.143 171.036 159.2 170.784 159.2 170.523C159.2 169.807 158.866 169.286 158.199 168.961C157.857 168.798 157.482 168.717 157.076 168.717H144.429L145.674 164.591H157.124C159.631 164.591 161.535 165.405 162.837 167.032C163.667 168.09 164.082 169.278 164.082 170.597C164.082 172.289 163.44 173.697 162.154 174.82C160.868 175.927 159.191 176.48 157.124 176.48ZM178.902 184H165.205L166.451 179.874H178.853C179.829 179.874 180.489 179.508 180.83 178.775C180.928 178.531 180.977 178.295 180.977 178.067C180.977 177.368 180.627 176.863 179.927 176.554C179.602 176.424 179.244 176.358 178.853 176.358H168.965V172.257H178.365C179.341 172.257 180 171.891 180.342 171.158C180.44 170.914 180.489 170.678 180.489 170.45C180.489 169.734 180.139 169.221 179.439 168.912C179.113 168.782 178.755 168.717 178.365 168.717H165.205L166.451 164.591H178.413C180.92 164.591 182.824 165.364 184.126 166.91C184.956 167.887 185.371 168.985 185.371 170.206C185.371 171.622 184.745 172.835 183.492 173.844C183.313 173.974 183.134 174.096 182.954 174.21C184.582 175.121 185.526 176.334 185.787 177.848C185.835 178.108 185.86 178.352 185.86 178.58C185.86 180.159 185.209 181.461 183.907 182.486C182.637 183.495 180.969 184 178.902 184Z" fill="white"/>
<path d="M163.677 61.9646L155.381 75.8139L154.055 68.0026L147.964 64.194L137.71 65.8356L129.375 73.0214L126.326 73.5715L127.976 56.3082L136.896 47.9279L149.887 47.6504L163.677 61.9646Z" fill="#00CC66"/>
<path d="M164.326 59.6095L150.866 45.5682L135.997 45.8968L125.965 55.3195L124.186 73.9553L117.222 75.2126L104.286 70.0367L96.8662 63.0511L109.771 45.1505L126.517 36.7773L146.16 37.981L157.105 47.526L164.326 59.6095Z" fill="#F5D106"/>
<path d="M166.565 41.7209L164.617 56.5068L158.539 46.4498L158.452 46.2699L147.023 35.9356L126.084 34.6503L108.374 43.5062L96.0051 60.6631L94.2695 52.669L100.526 34.3178L103.49 30.7259L125.349 20.5908L148.469 22.1589L166.565 41.7209Z" fill="#E50C54"/>
<path d="M180.374 51.0335L178.514 64.1476L165.7 83.8817L153.132 89.2323L155.8 79.1983L165.869 62.3821L166.01 61.9803L168.771 41.0185L149.441 20.1252L124.955 18.4661L106.569 26.9895L110.584 22.1211L125.6 15.4995L144.989 14.0938L164.715 22.1325L178.526 38.7444L180.374 51.0335Z" fill="#45B0F2"/>
</svg>
