<svg width="24" height="24" viewBox="0 0 24 24" fill="none" xmlns="http://www.w3.org/2000/svg">
<path fill-rule="evenodd" clip-rule="evenodd" d="M12 3C7.02944 3 3 7.02944 3 12C3 16.9706 7.02944 21 12 21C16.9706 21 21 16.9706 21 12C21 7.02944 16.9706 3 12 3ZM9.95925 14.4405C9.48424 14.1587 8.85496 14.1452 8.46443 14.5357C8.07391 14.9262 8.07007 15.5676 8.51997 15.8879C9.52946 16.6067 10.7444 17.0002 12 17.0002C13.2555 17.0002 14.4705 16.6067 15.48 15.8879C15.9299 15.5676 15.926 14.9262 15.5355 14.5357C15.145 14.1452 14.5157 14.1587 14.0407 14.4405C13.4282 14.8038 12.7242 15.0002 12 15.0002C11.2757 15.0002 10.5718 14.8038 9.95925 14.4405ZM10 10.5C10 11.3284 9.32843 12 8.5 12C7.67157 12 7 11.3284 7 10.5C7 9.67157 7.67157 9 8.5 9C9.32843 9 10 9.67157 10 10.5ZM15.5 12C16.3284 12 17 11.3284 17 10.5C17 9.67157 16.3284 9 15.5 9C14.6716 9 14 9.67157 14 10.5C14 11.3284 14.6716 12 15.5 12Z" fill="#76FBA6"/>
</svg>
